<svg t="1648255191797" class="icon" viewBox="0 0 1024 1024" version="1.1" xmlns="http://www.w3.org/2000/svg" p-id="6735"
  width="200" height="200">
  <path
    d="M435.2 582.4c-44.8 51.2-38.4 128 12.8 172.8 12.8 12.8 32 19.2 44.8 25.6l0 57.6c0 19.2 12.8 32 32 32 19.2 0 32-12.8 32-32l0-57.6c25.6-6.4 44.8-19.2 64-38.4 44.8-51.2 38.4-128-12.8-172.8C556.8 524.8 480 531.2 435.2 582.4zM576 697.6c-25.6 25.6-57.6 32-83.2 6.4-25.6-25.6-32-57.6-6.4-83.2 25.6-25.6 57.6-32 83.2-6.4C595.2 633.6 601.6 672 576 697.6z"
    p-id="6736"></path>
  <path
    d="M934.4 358.4l-89.6 0L844.8 313.6C844.8 140.8 704 0 531.2 0l0 0C358.4 0 217.6 140.8 217.6 313.6l0 51.2L128 364.8c-32 0-64 25.6-64 64L64 960c0 38.4 32 64 64 64l800 0c38.4 0 64-32 64-64L992 422.4C992 384 966.4 358.4 934.4 358.4zM281.6 313.6C281.6 172.8 390.4 64 531.2 64l0 0c134.4 0 249.6 108.8 249.6 249.6l0 51.2L281.6 364.8 281.6 313.6zM928 940.8c0 12.8-6.4 25.6-25.6 25.6L153.6 966.4c-12.8 0-25.6-12.8-25.6-25.6L128 448c0-12.8 12.8-25.6 25.6-25.6l748.8 0c12.8 0 25.6 12.8 25.6 25.6L928 940.8z"
    p-id="6737"></path>
</svg>