<svg xml:space="preserve" style="enable-background:new 0 0 256.5 253.117;" viewBox="0 0 256.5 253.117" height="253.117px" width="256.5px" y="0px" x="0px" xmlns:xlink="http://www.w3.org/1999/xlink" xmlns="http://www.w3.org/2000/svg" id="Layer_1" version="1.1">
<g id="Layer_3_2_">
	<path d="M242.982,111.691c0-39.136-31.803-70.86-71.03-70.86
		c-0.61,0-1.213,0.028-1.819,0.045c-12.386-20.762-35.095-34.682-61.072-34.682c-39.23,0-71.031,31.728-71.031,70.864
		c0,0.508,0.027,1.008,0.038,1.515C16.612,90.765,2.135,113.772,2.135,140.168c0,39.135,31.802,70.855,71.032,70.855
		c2.23,0,4.435-0.113,6.614-0.312c13.03,15.745,33.703,25.781,55.768,25.781c36.262,0,65.188-27.109,69.51-62.111
		C227.607,162.508,242.982,138.896,242.982,111.691z" style="opacity:0.3;fill:#BAB8D4;enable-background:new    ;"></path>
</g>
<g id="Layer_4">
	<g>
		<path d="M160.979,197.956v-37.595c0-20.01,15.168-36.38,33.705-36.38c18.539,0,33.705,16.371,33.705,36.38
			v37.595" style="fill:#E86D8F;"></path>
		<path d="M234.962,204.739c0,4.2-3.815,7.632-8.479,7.632h-63.596c-4.666,0-8.479-3.434-8.479-7.632
			c0-4.196,3.813-7.632,8.479-7.632h63.596C231.146,197.107,234.962,200.543,234.962,204.739z" style="fill:#FFFFFF;"></path>
		<path d="M160.979,197.956v-37.595
			c0-20.01,15.168-36.38,33.705-36.38c18.539,0,33.705,16.371,33.705,36.38v37.595" style="opacity:0.65;fill:#FFFFFF;enable-background:new    ;"></path>
		<path d="M230.389,197.956h-4v-37.595c0-18.957-14.223-34.38-31.705-34.38s-31.705,15.423-31.705,34.38
			v37.595h-4v-37.595c0-21.163,16.018-38.38,35.705-38.38s35.705,17.217,35.705,38.38V197.956z" style="fill:#CCCCDE;"></path>
		<g>
			<path d="M234.962,204.739c0,4.2-3.815,7.632-8.479,7.632h-63.596c-4.666,0-8.479-3.434-8.479-7.632
				c0-4.196,3.813-7.632,8.479-7.632h63.596C231.146,197.107,234.962,200.543,234.962,204.739z" style="fill:#F2F2FF;"></path>
			<path d="M226.482,213.871h-63.596c-5.503,0-9.979-4.097-9.979-9.132s4.477-9.132,9.979-9.132h63.596
				c5.503,0,9.979,4.097,9.979,9.132S231.985,213.871,226.482,213.871z M162.887,198.607c-3.849,0-6.979,2.751-6.979,6.132
				s3.131,6.132,6.979,6.132h63.596c3.849,0,6.979-2.751,6.979-6.132s-3.131-6.132-6.979-6.132H162.887z" style="fill:#CCCCDE;"></path>
		</g>
		<rect height="11.109" width="3" style="fill:#CCCCDE;" y="100.846" x="192.166"></rect>
		
			<rect height="3" width="18.053" style="fill:#CCCCDE;" transform="matrix(0.5 0.866 -0.866 0.5 178.9873 -90.2184)" y="108.406" x="158.602"></rect>
		
			<rect height="3" width="13.779" style="fill:#CCCCDE;" transform="matrix(0.8323 0.5544 -0.5544 0.8323 97.1494 -61.7685)" y="128.161" x="143.761"></rect>
		<rect height="3" width="18.053" style="fill:#CCCCDE;" y="153.504" x="132.564"></rect>
		<rect height="3" width="18.054" style="fill:#CCCCDE;" y="153.504" x="236.716"></rect>
		
			<rect height="11.927" width="3" style="fill:#CCCCDE;" transform="matrix(0.5001 0.866 -0.866 0.5001 231.0514 -139.229)" y="124.535" x="234.612"></rect>
		
			<rect height="18.053" width="3" style="fill:#CCCCDE;" transform="matrix(0.866 0.5001 -0.5001 0.866 84.402 -95.1364)" y="100.879" x="218.203"></rect>
	</g>
	<g>
		<path d="M90.118,213.838c0,6.266-5.126,11.395-11.392,11.395H18.352c-6.265,0-11.392-5.127-11.392-11.395
			v-39.954c0-6.266,5.126-11.392,11.392-11.392h60.374c6.265,0,11.392,5.126,11.392,11.392V213.838L90.118,213.838z" style="fill:#FFFFFF;"></path>
		<g>
			<path d="M25.253,162.492v-12.459c0-14.412,10.445-26.136,23.286-26.136
				c12.84,0,23.287,11.724,23.287,26.133v12.459h6.397V150.03c0-17.938-13.315-32.53-29.684-32.53
				c-16.367,0-29.683,14.594-29.683,32.533v12.459H25.253z" style="fill:#FFFFFF;"></path>
			<path d="M26.753,163.992h-9.397v-13.959c0-18.766,13.989-34.033,31.183-34.033
				c17.195,0,31.184,15.266,31.184,34.03v13.959h-9.397V150.03c0-13.583-9.773-24.633-21.787-24.633
				c-12.013,0-21.786,11.052-21.786,24.636V163.992z M20.356,160.992h3.397v-10.959c0-15.238,11.119-27.636,24.786-27.636
				c13.667,0,24.787,12.396,24.787,27.633v10.959h3.397V150.03c0-17.11-12.644-31.03-28.184-31.03
				c-15.54,0-28.183,13.922-28.183,31.033V160.992z" style="fill:#CCCCDE;"></path>
		</g>
		<path d="M78.726,226.732H18.352c-7.109,0-12.892-5.784-12.892-12.895v-39.954
			c0-7.108,5.783-12.892,12.892-12.892h60.374c7.109,0,12.892,5.783,12.892,12.892v39.954
			C91.618,220.948,85.835,226.732,78.726,226.732z M18.352,163.992c-5.455,0-9.892,4.438-9.892,9.892v39.954
			c0,5.456,4.438,9.895,9.892,9.895h60.374c5.455,0,9.892-4.438,9.892-9.895v-39.954c0-5.454-4.438-9.892-9.892-9.892H18.352z" style="fill:#CCCCDE;"></path>
	</g>
</g>
<g id="Layer_2">
	<g>
		<path d="M54.532,133.061c-7.105,0-12.886-4.79-12.886-10.677v-7.179c0-1.933,1.567-3.5,3.5-3.5
			s3.5,1.567,3.5,3.5v7.179c0,1.736,2.517,3.677,5.886,3.677c3.19,0,5.886-3.454,5.886-7.542V66.068c0-1.933,1.567-3.5,3.5-3.5
			s3.5,1.567,3.5,3.5v52.451C67.418,126.537,61.637,133.061,54.532,133.061z" style="fill:#CCCCDE;"></path>
	</g>
	<g>
		<path d="M122.442,66.745c0-32.321-26.202-58.523-58.524-58.523c-32.321,0-58.523,26.202-58.523,58.523
			H122.442z" style="fill:#D6EBDE;"></path>
		<path d="M123.942,68.245H3.895v-1.5c0-33.097,26.926-60.023,60.023-60.023
			c33.097,0,60.024,26.926,60.024,60.023V68.245z M6.915,65.245h114.008C120.125,34.492,94.86,9.722,63.918,9.722
			C32.976,9.722,7.711,34.492,6.915,65.245z" style="fill:#CCCCDE;"></path>
	</g>
	<g>
		<path d="M88.442,66.745c0-32.321-11.651-58.523-26.024-58.523c-14.372,0-26.023,26.202-26.023,58.523
			H88.442z" style="fill:#FFFFFF;"></path>
		<path d="M89.942,68.245H34.895v-1.5c0-33.658,12.089-60.023,27.523-60.023
			c15.434,0,27.524,26.365,27.524,60.023V68.245z M37.904,65.245h49.029C86.577,34.996,75.496,9.722,62.418,9.722
			C49.341,9.722,38.26,34.996,37.904,65.245z" style="fill:#CCCCDE;"></path>
	</g>
</g>
<g id="Layer_1_1_">
	<g style="display:none;" id="Layer_3_5_">
		<g style="display:inline;">
			<g>
				<path d="M84.16,142.542c0-11.563-10.059-20.936-22.467-20.936c-0.194,0-0.385,0.009-0.576,0.014
					c-3.917-6.134-11.102-10.245-19.318-10.245c-12.409,0-22.469,9.372-22.469,20.936c0,0.149,0.009,0.297,0.012,0.446
					c-6.785,3.603-11.365,10.399-11.365,18.198c0,11.562,10.059,20.934,22.468,20.934c0.705,0,1.403-0.033,2.092-0.094
					c4.122,4.65,10.358,7.617,17.335,7.617c11.471,0,20.925-8.01,22.293-18.35C79.297,157.555,84.16,150.579,84.16,142.542z" style="fill:#D7F7E4;"></path>
				<path d="M49.872,180.912c-6.895,0-13.393-2.749-17.95-7.568c-0.499,0.03-0.993,0.045-1.477,0.045
					c-13.216,0-23.968-10.063-23.968-22.434c0-7.768,4.328-14.997,11.357-19.076c0.247-12.173,10.902-22.004,23.964-22.004
					c8.091,0,15.716,3.9,20.112,10.232c13.116,0.11,23.749,10.131,23.749,22.435c0,8.109-4.626,15.515-12.127,19.506
					C71.687,172.857,61.662,180.912,49.872,180.912z M33.159,170.234l0.501,0.565c4.006,4.52,9.916,7.112,16.212,7.112
					c10.575,0,19.52-7.328,20.806-17.046l0.105-0.796l0.72-0.354c6.882-3.385,11.157-9.966,11.157-17.175
					c0-10.717-9.406-19.436-20.967-19.436c-0.115,0-0.229,0.004-0.344,0.008l-1.041,0.027l-0.456-0.714
					c-3.763-5.892-10.68-9.552-18.054-9.552c-11.562,0-20.969,8.719-20.969,19.436l0.029,1.339l-0.814,0.433
					c-6.519,3.461-10.568,9.927-10.568,16.873c0,10.716,9.406,19.434,20.968,19.434c0.637,0,1.296-0.029,1.961-0.088L33.159,170.234
					z" style="fill:#CCCCDE;"></path>
			</g>
			<path d="M61.314,120.853c-0.193,0-0.384,0.009-0.575,0.014
				c-3.141-4.918-8.383-8.534-14.573-9.775c4.898,1.229,9.023,4.208,11.558,8.175c0.165-0.004,2.416,3.886,2.583,3.886
				c10.648,0,15.601,5.738,15.601,15.66c0,6.896-2.583,11.291-8.704,14.302c-1.173,8.875-9.287,15.748-19.129,15.748
				c-5.99,0-11.34-2.544-14.877-6.533c-0.591,0.05-1.189,0.078-1.794,0.078c-10.649,0-19.013-5.048-19.013-14.968
				c0-6.683,2.99-9.973,8.432-13.938c-0.145-0.855-0.75-8.421,1.267-10.437c4.792-4.793,6.963-8.909,11.25-11.038
				c-8.414,3.025-14.385,10.627-14.385,19.536c0,0.147,0.009,0.299,0.012,0.446c-6.787,3.604-11.366,10.396-11.366,18.196
				c0,11.562,10.059,20.938,22.468,20.938c0.707,0,1.403-0.035,2.093-0.098c4.121,4.648,10.356,7.617,17.336,7.617
				c11.469,0,20.924-8.012,22.291-18.354c7.133-3.506,11.997-10.479,11.997-18.521C83.783,130.227,73.724,120.853,61.314,120.853z" style="opacity:0.1;fill:#6E6E96;enable-background:new    ;"></path>
			<g>
				<path d="M29.336,153.865c0,0,11.635,2.277,11.635,13.662c0,0,3.132,19.342-8.976,33.026h27.96
					c-0.277-0.387-24.422-32.644,2.449-51.815C46.016,158.107,29.336,153.865,29.336,153.865z" style="fill:#EDE3DA;"></path>
				<path d="M59.955,202.054h-31.29l2.207-2.494c11.477-12.972,8.648-31.607,8.619-31.794l-0.019-0.238
					c0-9.079-8.398-11.683-10.144-12.124c-0.238-0.053-0.362-0.084-0.362-0.084l0.658-2.926c0,0,0.139,0.026,0.39,0.089
					c0.935,0.203,4.231,0.841,8.802,0.841c5.724,0,14.333-1.021,22.844-5.887l1.616,2.522c-6.629,4.73-10.566,10.708-11.701,17.767
					c-2.416,15.023,8.336,30.229,9.57,31.913l1.748,2.386L59.955,202.054z M35.13,199.054h21.996
					c-3.446-5.395-10.641-18.573-8.514-31.805c0.804-4.999,2.848-9.499,6.1-13.452c-6.069,2.011-11.71,2.526-15.896,2.526
					c-0.463,0-0.915-0.006-1.352-0.018c2.655,2.276,4.974,5.786,5.007,11.104C42.731,169.146,44.9,185.741,35.13,199.054z" style="fill:#CCCCDE;"></path>
			</g>
			<g>
				<path d="M36.703,131.025" style="fill:#D57E58;"></path>
			</g>
			<path d="M55.43,153.833c0,0-17.654,22.793-4.085,46.722h8.611
				C59.955,200.555,42.04,175.518,55.43,153.833z" style="opacity:0.11;fill:#6E6E96;enable-background:new    ;"></path>
		</g>
		<g style="display:inline;">
			<g>
				<path d="M254,141.26c0-10.828-9.42-19.604-21.04-19.604c-0.183,0-0.36,0.008-0.539,0.013
					c-3.669-5.744-10.396-9.595-18.091-9.595c-11.62,0-21.041,8.777-21.041,19.604c0,0.141,0.009,0.279,0.012,0.418
					c-6.354,3.375-10.644,9.739-10.644,17.043c0,10.825,9.421,19.604,21.04,19.604c0.66,0,1.312-0.032,1.96-0.089
					c3.858,4.354,9.698,7.134,16.233,7.134c10.738,0,19.596-7.499,20.875-17.185C249.445,155.316,254,148.786,254,141.26z" style="fill:#D7F7E4;"></path>
				<path d="M221.891,177.288c-6.467,0-12.563-2.573-16.848-7.085c-0.458,0.027-0.902,0.04-1.346,0.04
					c-12.429,0-22.54-9.468-22.54-21.104c0-7.289,4.053-14.077,10.637-17.92c0.262-11.426,10.271-20.646,22.536-20.646
					c7.59,0,14.745,3.652,18.885,9.583c12.312,0.128,22.285,9.545,22.285,21.103c0,7.612-4.335,14.567-11.367,18.328
					C242.377,169.733,232.962,177.288,221.891,177.288z M206.279,167.094l0.501,0.565c3.733,4.213,9.241,6.629,15.11,6.629
					c9.857,0,18.192-6.827,19.388-15.881l0.105-0.795l0.72-0.354c6.413-3.156,10.396-9.286,10.396-15.998
					c0-9.982-8.766-18.104-19.54-18.104c-0.117,0-0.231,0.004-0.346,0.007l-1.001,0.028l-0.456-0.715
					c-3.508-5.491-9.955-8.902-16.827-8.902c-10.775,0-19.541,8.122-19.541,18.104l0.031,1.31l-0.815,0.433
					c-6.074,3.227-9.848,9.25-9.848,15.719c0,9.982,8.766,18.104,19.54,18.104c0.591,0,1.189-0.027,1.829-0.083L206.279,167.094z" style="fill:#CCCCDE;"></path>
			</g>
			<path d="M232.605,120.949c-0.184,0-0.358,0.008-0.539,0.012
				c-2.94-4.606-7.853-7.992-13.646-9.154c4.586,1.15,8.449,3.94,10.822,7.655c0.154-0.004,2.263,3.639,2.419,3.639
				c9.971,0,14.608,5.374,14.608,14.665c0,6.459-2.42,10.573-8.148,13.396c-1.1,8.311-8.698,14.742-17.914,14.742
				c-5.607,0-10.619-2.381-13.934-6.117c-0.557,0.047-1.112,0.072-1.682,0.072c-9.975,0-17.806-4.728-17.806-14.017
				c0-6.257,2.8-9.339,7.896-13.055c-0.138-0.806-0.701-7.885,1.188-9.772c4.485-4.488,6.521-8.343,10.535-10.337
				c-7.88,2.833-13.472,9.952-13.472,18.292c0,0.139,0.006,0.275,0.012,0.418c-6.354,3.373-10.646,9.736-10.646,17.041
				c0,10.824,9.421,19.604,21.041,19.604c0.661,0,1.313-0.032,1.959-0.088c3.859,4.354,9.699,7.133,16.234,7.133
				c10.739,0,19.594-7.5,20.875-17.187c6.68-3.285,11.231-9.813,11.231-17.342C253.646,129.727,244.227,120.949,232.605,120.949z" style="opacity:0.1;fill:#6E6E96;enable-background:new    ;"></path>
			<g>
				<path d="M202.66,151.861c0,0,10.896,2.133,10.896,12.797c0,0,2.934,18.109-8.406,30.927h26.184
					c-0.26-0.358-22.87-30.565,2.294-48.521C218.279,155.836,202.66,151.861,202.66,151.861z" style="fill:#EDE3DA;"></path>
				<path d="M231.334,197.085H201.82l2.207-2.494c10.744-12.145,8.077-29.519,8.049-29.692l-0.02-0.24
					c0-8.432-7.802-10.853-9.426-11.264c-0.225-0.05-0.341-0.08-0.341-0.08l0.658-2.925c0,0,0.132,0.024,0.369,0.084
					c0.876,0.19,3.955,0.786,8.226,0.786c5.348,0,13.39-0.954,21.341-5.498l1.615,2.523c-6.195,4.421-9.87,10.006-10.924,16.602
					c-2.247,14.071,7.8,28.223,8.952,29.79l1.758,2.389L231.334,197.085z M208.273,194.085h20.232
					c-3.271-5.141-9.861-17.346-7.893-29.672c0.735-4.605,2.589-8.76,5.534-12.422c-5.576,1.803-10.748,2.269-14.604,2.269
					c-0.344,0-0.681-0.004-1.009-0.011c2.417,2.149,4.489,5.412,4.522,10.291C215.305,166.203,217.305,181.631,208.273,194.085z" style="fill:#CCCCDE;"></path>
			</g>
			<g>
				<path d="M209.561,130.477" style="fill:#D57E58;"></path>
			</g>
			<path d="M227.096,151.833c0,0-16.531,21.345-3.824,43.752h8.063
				C231.333,195.585,214.557,172.139,227.096,151.833z" style="opacity:0.11;fill:#6E6E96;enable-background:new    ;"></path>
		</g>
		<g style="display:inline;">
			<g>
				<path d="M217.298,143.02c0-16.622-14.461-30.095-32.299-30.095c-0.278,0-0.554,0.012-0.828,0.019
					c-5.632-8.817-15.959-14.729-27.771-14.729c-17.838,0-32.301,13.475-32.301,30.096c0,0.215,0.014,0.429,0.018,0.646
					c-9.755,5.181-16.339,14.945-16.339,26.157c0,16.62,14.462,30.097,32.3,30.097c1.014,0,2.018-0.05,3.008-0.138
					c5.926,6.688,14.889,10.95,24.921,10.95c16.489,0,30.081-11.514,32.048-26.379C210.307,164.602,217.298,154.572,217.298,143.02z" style="fill:#D7F7E4;"></path>
				<path d="M168.007,197.523c-9.84,0-19.103-3.963-25.537-10.897c-0.815,0.057-1.617,0.085-2.392,0.085
					c-18.638,0-33.8-14.174-33.8-31.597c0-11.044,6.23-21.322,16.322-27.036c0.134-17.315,15.246-31.363,33.8-31.363
					c11.535,0,22.398,5.615,28.566,14.71c0.011,0,0.021,0,0.032,0c18.637,0,33.799,14.173,33.799,31.595
					c0,11.516-6.635,22.026-17.371,27.612C198.969,186.018,184.751,197.523,168.007,197.523z M143.707,183.513l0.502,0.565
					c5.881,6.639,14.555,10.445,23.798,10.445c15.531,0,28.669-10.78,30.561-25.075l0.105-0.796l0.72-0.354
					c10.119-4.978,16.405-14.664,16.405-25.279c0-15.768-13.816-28.595-30.799-28.595c-0.179,0-0.355,0.006-0.532,0.011
					l-1.104,0.028l-0.455-0.713c-5.531-8.658-15.688-14.037-26.507-14.037c-16.983,0-30.801,12.828-30.801,28.596
					c0,0.108,0.004,0.217,0.009,0.325l0.028,1.213l-0.815,0.434c-9.587,5.091-15.543,14.606-15.543,24.832
					c0,15.769,13.817,28.597,30.8,28.597c0.922,0,1.89-0.044,2.875-0.132L143.707,183.513z" style="fill:#CCCCDE;"></path>
			</g>
			<path d="M184.456,111.841c-0.276,0-0.552,0.012-0.827,0.019
				c-4.516-7.071-12.051-12.269-20.949-14.052c7.041,1.766,12.971,6.049,16.614,11.751c0.237-0.006,3.474,5.586,3.713,5.586
				c15.308,0,22.429,8.248,22.429,22.511c0,9.914-3.715,16.231-12.513,20.562c-1.687,12.754-13.353,22.635-27.5,22.635
				c-8.61,0-16.302-3.655-21.387-9.396c-0.851,0.071-1.71,0.114-2.58,0.114c-15.31,0-27.332-7.254-27.332-21.516
				c0-9.604,4.298-14.337,12.12-20.039c-0.209-1.234-1.077-12.104,1.82-15.002c6.89-6.89,10.011-12.808,16.174-15.868
				c-12.096,4.349-20.679,15.277-20.679,28.08c0,0.215,0.011,0.429,0.017,0.646c-9.756,5.178-16.34,14.947-16.34,26.156
				c0,16.621,14.461,30.097,32.3,30.097c1.017,0,2.017-0.049,3.008-0.135c5.925,6.688,14.89,10.948,24.922,10.948
				c16.487,0,30.078-11.515,32.046-26.379c10.254-5.043,17.244-15.069,17.244-26.623
				C216.756,125.314,202.295,111.841,184.456,111.841z" style="opacity:0.1;fill:#6E6E96;enable-background:new    ;"></path>
			<g>
				<path d="M138.484,159.296c0,0,16.727,3.272,16.727,19.644c0,0,4.504,27.806-12.904,47.479h40.195
					c-0.398-0.555-35.107-46.922,3.521-74.483C162.464,165.396,138.484,159.296,138.484,159.296z" style="fill:#EDE3DA;"></path>
				<path d="M182.502,227.919h-43.525l2.207-2.494c16.743-18.923,12.591-45.975,12.547-46.245l-0.02-0.24
					c0-13.557-12.515-17.422-15.086-18.071c-0.336-0.074-0.511-0.118-0.511-0.118l0.658-2.926c0,0,0.192,0.037,0.538,0.123
					c1.35,0.295,6.158,1.228,12.813,1.228c8.306,0,20.799-1.481,33.155-8.542l1.615,2.523c-9.683,6.909-15.433,15.65-17.091,25.981
					c-3.511,21.875,12.089,43.914,13.88,46.355l1.75,2.387L182.502,227.919z M145.496,224.919h34.145
					c-4.574-6.925-15.961-26.556-12.799-46.256c1.263-7.87,4.703-14.87,10.258-20.905c-9.522,3.547-18.479,4.417-24.976,4.417
					c-1.404,0-2.727-0.039-3.958-0.104c4.314,3.1,8.506,8.287,8.545,16.75C157.048,181.028,160.4,205.69,145.496,224.919z" style="fill:#CCCCDE;"></path>
			</g>
			<g>
				<path d="M149.077,126.465" style="fill:#D57E58;"></path>
			</g>
			<path d="M175.997,159.251c0,0-25.378,32.767-5.873,67.164h12.378
				C182.502,226.415,156.748,190.423,175.997,159.251z" style="opacity:0.11;fill:#6E6E96;enable-background:new    ;"></path>
		</g>
		<g style="display:inline;">
			<g>
				<path d="M145.461,144.131c0-13.645-11.873-24.707-26.517-24.707c-0.229,0-0.454,0.01-0.68,0.016
					c-4.624-7.239-13.102-12.092-22.8-12.092c-14.644,0-26.518,11.063-26.518,24.707c0,0.178,0.012,0.354,0.015,0.529
					c-8.01,4.251-13.414,12.271-13.414,21.477c0,13.646,11.872,24.707,26.518,24.707c0.832,0,1.655-0.041,2.469-0.106
					c4.864,5.485,12.224,8.985,20.46,8.985c13.537,0,24.695-9.45,26.309-21.653C139.721,161.85,145.461,153.617,145.461,144.131z" style="fill:#D7F7E4;"></path>
				<path d="M104.994,189.146c-8.109,0-15.748-3.248-21.079-8.938c-0.648,0.039-1.259,0.059-1.851,0.059
					c-15.449,0-28.018-11.757-28.018-26.207c0-9.119,5.111-17.604,13.401-22.354c0.2-14.291,12.691-25.858,28.016-25.858
					c9.509,0,18.468,4.606,23.595,12.076c15.396,0.059,27.902,11.793,27.902,26.207c0,9.511-5.454,18.196-14.288,22.848
					C130.576,179.672,118.825,189.146,104.994,189.146z M85.16,177.106l0.497,0.56c4.778,5.39,11.827,8.48,19.337,8.48
					c12.617,0,23.288-8.749,24.821-20.35l0.105-0.795l0.72-0.354c8.216-4.045,13.32-11.906,13.32-20.517
					c0-12.797-11.223-23.207-25.017-23.207c-0.145,0-0.287,0.005-0.429,0.009l-1.059,0.028L117,120.248
					c-4.492-7.031-12.744-11.399-21.536-11.399c-13.795,0-25.018,10.411-25.018,23.207l0.03,1.423l-0.812,0.432
					c-7.783,4.13-12.617,11.852-12.617,20.151c0,12.797,11.223,23.207,25.018,23.207c0.73,0,1.498-0.033,2.349-0.102L85.16,177.106z" style="fill:#CCCCDE;"></path>
			</g>
			<path d="M118.498,118.535c-0.228,0-0.452,0.009-0.679,0.015
				c-3.707-5.805-9.894-10.072-17.199-11.537c5.78,1.45,10.648,4.966,13.641,9.647c0.194-0.005,2.851,4.586,3.048,4.586
				c12.567,0,18.414,6.771,18.414,18.48c0,8.139-3.05,13.325-10.271,16.881c-1.384,10.472-10.961,18.584-22.576,18.584
				c-7.069,0-13.384-3.004-17.559-7.715c-0.698,0.061-1.404,0.096-2.118,0.096c-12.568,0-22.438-5.957-22.438-17.664
				c0-7.885,3.528-11.771,9.949-16.452c-0.171-1.015-0.884-9.938,1.496-12.316c5.655-5.657,8.218-10.515,13.277-13.028
				c-9.93,3.571-16.978,12.542-16.978,23.053c0,0.177,0.01,0.353,0.015,0.528c-8.011,4.25-13.415,12.271-13.415,21.477
				c0,13.645,11.873,24.706,26.518,24.706c0.834,0,1.655-0.04,2.469-0.108c4.864,5.488,12.224,8.988,20.461,8.988
				c13.536,0,24.693-9.451,26.311-21.656c8.418-4.141,14.158-12.371,14.158-21.854C145.016,129.598,133.143,118.535,118.498,118.535
				z" style="opacity:0.1;fill:#6E6E96;enable-background:new    ;"></path>
			<g>
				<path d="M80.757,157.494c0,0,13.731,2.688,13.731,16.128c0,0,3.697,22.823-10.595,38.978h33
					c-0.328-0.455-28.824-38.521,2.89-61.151C100.443,162.502,80.757,157.494,80.757,157.494z" style="fill:#EDE3DA;"></path>
				<path d="M116.893,214.1h-36.33l2.207-2.494c13.636-15.412,10.273-37.523,10.237-37.744l-0.019-0.239
					c0-10.926-10.094-14.049-12.179-14.576c-0.278-0.062-0.422-0.098-0.422-0.098l0.658-2.926c0,0,0.161,0.03,0.451,0.103
					c1.105,0.241,5.025,1.001,10.455,1.001c6.786,0,16.995-1.211,27.088-6.98l1.615,2.523c-7.892,5.632-12.577,12.753-13.924,21.167
					c-2.861,17.866,9.887,35.854,11.351,37.847l1.753,2.388L116.893,214.1z M87.055,211.1h26.991
					c-3.932-6.047-12.823-21.844-10.278-37.738c0.989-6.177,3.596-11.703,7.777-16.517c-7.478,2.623-14.465,3.281-19.595,3.281
					c-0.833,0-1.63-0.017-2.39-0.046c3.334,2.627,6.39,6.832,6.426,13.424C96.28,175.44,98.933,195.348,87.055,211.1z" style="fill:#CCCCDE;"></path>
			</g>
			<g>
				<path d="M89.453,130.541" style="fill:#D57E58;"></path>
			</g>
			<path d="M111.553,157.458c0,0-20.835,26.899-4.821,55.142h10.162
				C116.894,212.6,95.75,183.049,111.553,157.458z" style="opacity:0.11;fill:#6E6E96;enable-background:new    ;"></path>
		</g>
		<g style="display:inline;">
			<g>
				<path d="M252.684,168.268c0-12.345-10.74-22.35-23.988-22.35c-0.202,0-0.406,0.008-0.61,0.014
					c-4.187-6.549-11.854-10.938-20.625-10.938c-13.248,0-23.985,10.007-23.985,22.35c0,0.161,0.012,0.318,0.014,0.479
					c-7.244,3.849-12.135,11.104-12.135,19.431c0,12.348,10.736,22.354,23.985,22.354c0.753,0,1.497-0.039,2.229-0.104
					c4.4,4.969,11.062,8.135,18.512,8.135c12.245,0,22.339-8.553,23.799-19.593C247.49,184.295,252.684,176.85,252.684,168.268z" style="fill:#D7F7E4;"></path>
				<path d="M216.08,209.139c-7.354,0-14.28-2.938-19.127-8.084c-0.557,0.035-1.09,0.053-1.614,0.053
					c-14.053,0-25.485-10.7-25.485-23.854c0-8.272,4.622-15.974,12.125-20.309c0.228-12.967,11.571-23.451,25.481-23.451
					c8.62,0,16.746,4.166,21.42,10.925c13.97,0.093,25.304,10.756,25.304,23.849c0,8.632-4.936,16.519-12.936,20.763
					C239.308,200.55,228.636,209.139,216.08,209.139z M198.19,197.943l0.501,0.566c4.294,4.849,10.632,7.629,17.389,7.629
					c11.341,0,20.933-7.862,22.312-18.289l0.105-0.795l0.719-0.354c7.382-3.638,11.968-10.701,11.968-18.433
					c0-11.496-10.088-20.85-22.488-20.85c-0.146,0-0.294,0.005-0.441,0.009l-0.976,0.028l-0.457-0.716
					c-4.04-6.319-11.459-10.245-19.361-10.245c-12.398,0-22.485,9.354-22.485,20.85l0.024,1.375l-0.807,0.429
					c-6.994,3.716-11.339,10.654-11.339,18.106c0,11.499,10.087,20.854,22.485,20.854c0.664,0,1.351-0.032,2.098-0.098
					L198.19,197.943z" style="fill:#CCCCDE;"></path>
			</g>
			<path d="M228.292,145.111c-0.206,0-0.409,0.011-0.614,0.016
				c-3.354-5.251-8.949-9.111-15.558-10.438c5.229,1.312,9.633,4.492,12.339,8.728c0.175-0.004,2.579,4.149,2.757,4.149
				c11.368,0,16.655,6.123,16.655,16.718c0,7.362-2.757,12.055-9.291,15.271c-1.252,9.473-9.915,16.813-20.423,16.813
				c-6.396,0-12.106-2.72-15.884-6.979c-0.631,0.055-1.271,0.086-1.916,0.086c-11.368,0-20.299-5.389-20.299-15.979
				c0-7.135,3.189-10.646,9.002-14.885c-0.156-0.918-0.804-8.987,1.353-11.142c5.116-5.116,7.435-9.513,12.011-11.784
				c-8.98,3.229-15.357,11.346-15.357,20.854c0,0.159,0.013,0.316,0.017,0.479c-7.246,3.847-12.137,11.104-12.137,19.429
				c0,12.343,10.737,22.35,23.987,22.35c0.754,0,1.496-0.035,2.231-0.1c4.401,4.966,11.06,8.132,18.509,8.132
				c12.245,0,22.338-8.553,23.799-19.592c7.615-3.743,12.812-11.191,12.812-19.771C252.279,155.118,241.541,145.111,228.292,145.111
				z" style="opacity:0.1;fill:#6E6E96;enable-background:new    ;"></path>
			<g>
				<path d="M194.15,180.355c0,0,12.422,2.431,12.422,14.588c0,0,3.345,20.646-9.584,35.259h29.853
					c-0.296-0.41-26.073-34.847,2.615-55.317C211.96,184.887,194.15,180.355,194.15,180.355z" style="fill:#EDE3DA;"></path>
				<path d="M226.841,231.702h-33.183l2.207-2.494c12.288-13.89,9.258-33.826,9.227-34.026l-0.02-0.238
					c0-9.771-9.034-12.57-10.906-13.045c-0.254-0.056-0.386-0.089-0.386-0.089l0.658-2.926c0,0,0.148,0.028,0.414,0.095
					c0.999,0.218,4.531,0.9,9.425,0.9c6.122,0,15.33-1.092,24.435-6.296l1.615,2.522c-7.106,5.071-11.325,11.482-12.537,19.054
					c-2.579,16.108,8.921,32.332,10.241,34.129l1.754,2.389L226.841,231.702z M200.134,228.702h23.868
					c-3.634-5.641-11.454-19.779-9.175-34.017c0.872-5.444,3.125-10.332,6.725-14.611c-6.594,2.236-12.737,2.805-17.274,2.805
					c-0.6,0-1.179-0.009-1.737-0.026c2.908,2.41,5.497,6.182,5.532,11.973C208.345,196.638,210.695,214.473,200.134,228.702z" style="fill:#CCCCDE;"></path>
			</g>
			<g>
				<path d="M202.018,155.975" style="fill:#D57E58;"></path>
			</g>
			<path d="M222.01,180.322c0,0-18.847,24.334-4.361,49.88h9.192
				C226.841,230.202,207.714,203.473,222.01,180.322z" style="opacity:0.11;fill:#6E6E96;enable-background:new    ;"></path>
		</g>
		<g style="display:inline;">
			<g>
				<path d="M88.418,166.416c0-13.111-11.408-23.738-25.479-23.738c-0.22,0-0.436,0.008-0.653,0.014
					c-4.443-6.954-12.589-11.614-21.907-11.614c-14.071,0-25.48,10.629-25.48,23.737c0,0.17,0.011,0.336,0.015,0.507
					c-7.695,4.086-12.889,11.795-12.889,20.64c0,13.107,11.407,23.737,25.479,23.737c0.8,0,1.59-0.041,2.372-0.104
					c4.674,5.271,11.745,8.639,19.659,8.639c13.007,0,23.729-9.082,25.279-20.81C82.903,183.439,88.418,175.531,88.418,166.416z" style="fill:#D7F7E4;"></path>
				<path d="M49.535,209.732c-7.796,0-15.142-3.122-20.277-8.591c-0.62,0.038-1.198,0.057-1.754,0.057
					c-14.876,0-26.979-11.321-26.979-25.237c0-8.772,4.911-16.938,12.877-21.518c0.213-13.745,12.233-24.866,26.977-24.866
					c9.146,0,17.764,4.425,22.703,11.601c14.81,0.073,26.836,11.367,26.836,25.238c0,9.149-5.242,17.508-13.734,21.992
					C74.152,200.621,62.844,209.732,49.535,209.732z M30.501,198.038l0.497,0.561c4.583,5.169,11.339,8.134,18.537,8.134
					c12.094,0,22.322-8.386,23.792-19.506l0.105-0.795l0.719-0.354c7.875-3.878,12.767-11.412,12.767-19.661
					c0-12.263-10.757-22.238-23.979-22.238c-0.162,0-0.321,0.005-0.48,0.01l-0.98,0.026l-0.457-0.715
					c-4.304-6.737-12.214-10.922-20.643-10.922c-13.223,0-23.98,9.976-23.98,22.237l0.036,1.397l-0.817,0.435
					c-7.459,3.96-12.093,11.361-12.093,19.314c0,12.262,10.757,22.237,23.979,22.237c0.689,0,1.425-0.032,2.251-0.1L30.501,198.038z" style="fill:#CCCCDE;"></path>
			</g>
			<path d="M62.511,141.822c-0.219,0-0.435,0.01-0.652,0.015
				c-3.562-5.577-9.506-9.678-16.525-11.085c5.553,1.393,10.231,4.771,13.106,9.27c0.186-0.004,2.739,4.406,2.928,4.406
				c12.076,0,17.692,6.506,17.692,17.758c0,7.82-2.929,12.806-9.87,16.222c-1.33,10.063-10.531,17.854-21.693,17.854
				c-6.792,0-12.859-2.886-16.871-7.412c-0.67,0.058-1.348,0.092-2.035,0.092c-12.076,0-21.561-5.723-21.561-16.975
				c0-7.574,3.391-11.308,9.561-15.807c-0.165-0.975-0.85-9.549,1.437-11.836c5.435-5.434,7.896-10.103,12.758-12.516
				c-9.541,3.43-16.313,12.051-16.313,22.146c0,0.17,0.01,0.338,0.014,0.508c-7.696,4.084-12.889,11.792-12.889,20.639
				c0,13.106,11.407,23.735,25.479,23.735c0.801,0,1.591-0.039,2.373-0.104c4.674,5.272,11.745,8.639,19.659,8.639
				c13.006,0,23.728-9.081,25.278-20.809c8.089-3.979,13.604-11.892,13.604-21.002C87.991,152.449,76.583,141.822,62.511,141.822z" style="opacity:0.1;fill:#6E6E96;enable-background:new    ;"></path>
			<g>
				<path d="M26.248,179.256c0,0,13.193,2.583,13.193,15.496c0,0,3.553,21.932-10.179,37.45h31.707
					c-0.314-0.437-27.694-37.015,2.777-58.759C45.163,184.066,26.248,179.256,26.248,179.256z" style="fill:#EDE3DA;"></path>
				<path d="M60.969,233.702H25.932l2.207-2.494c13.083-14.784,9.855-36.005,9.821-36.217l-0.019-0.239
					c0-10.454-9.661-13.443-11.658-13.948c-0.266-0.059-0.405-0.094-0.405-0.094l0.658-2.926c0,0,0.155,0.029,0.434,0.099
					c1.061,0.231,4.819,0.96,10.029,0.96c6.514,0,16.314-1.163,26.002-6.701l1.616,2.522c-7.567,5.4-12.06,12.228-13.353,20.293
					c-2.748,17.136,9.488,34.414,10.893,36.328l1.751,2.388L60.969,233.702z M32.418,230.702h25.708
					c-3.81-5.884-12.263-21.012-9.824-36.22c0.941-5.872,3.401-11.134,7.34-15.726c-7.116,2.464-13.756,3.086-18.643,3.086
					c-0.734,0-1.44-0.014-2.115-0.038c3.159,2.54,6.021,6.566,6.057,12.829C41.226,196.521,43.755,215.578,32.418,230.702z" style="fill:#CCCCDE;"></path>
			</g>
			<g>
				<path d="M34.603,153.357" style="fill:#D57E58;"></path>
			</g>
			<path d="M55.838,179.221c0,0-20.02,25.848-4.633,52.981h9.764
				C60.969,232.202,40.654,203.811,55.838,179.221z" style="opacity:0.11;fill:#6E6E96;enable-background:new    ;"></path>
		</g>
	</g>
	<g style="display:none;" id="Layer_3_3_">
		<g style="display:inline;">
			<g>
				<path d="M85.16,142.542c0-11.563-10.059-20.936-22.467-20.936c-0.194,0-0.385,0.009-0.576,0.014
					c-3.917-6.134-11.102-10.245-19.318-10.245c-12.409,0-22.469,9.372-22.469,20.936c0,0.149,0.009,0.297,0.012,0.446
					c-6.785,3.603-11.365,10.399-11.365,18.198c0,11.562,10.059,20.934,22.468,20.934c0.705,0,1.403-0.033,2.092-0.094
					c4.122,4.65,10.358,7.617,17.335,7.617c11.471,0,20.925-8.01,22.293-18.35C80.297,157.555,85.16,150.579,85.16,142.542z" style="fill:#D7F7E4;"></path>
				<path d="M50.872,180.912c-6.895,0-13.393-2.749-17.95-7.568c-0.499,0.03-0.993,0.045-1.477,0.045
					c-13.216,0-23.968-10.063-23.968-22.434c0-7.768,4.328-14.997,11.357-19.076c0.247-12.173,10.902-22.004,23.964-22.004
					c8.091,0,15.716,3.9,20.112,10.232c13.116,0.11,23.749,10.131,23.749,22.435c0,8.109-4.626,15.515-12.127,19.506
					C72.687,172.857,62.662,180.912,50.872,180.912z M34.159,170.234l0.501,0.565c4.006,4.52,9.916,7.112,16.212,7.112
					c10.575,0,19.52-7.328,20.806-17.046l0.105-0.796l0.72-0.354c6.882-3.385,11.157-9.966,11.157-17.175
					c0-10.717-9.406-19.436-20.967-19.436c-0.115,0-0.229,0.004-0.344,0.008l-1.041,0.027l-0.456-0.714
					c-3.763-5.892-10.68-9.552-18.054-9.552c-11.562,0-20.969,8.719-20.969,19.436l0.029,1.339l-0.814,0.433
					c-6.519,3.461-10.568,9.927-10.568,16.873c0,10.716,9.406,19.434,20.968,19.434c0.637,0,1.296-0.029,1.961-0.088L34.159,170.234
					z" style="fill:#CCCCDE;"></path>
			</g>
			<path d="M62.314,120.853c-0.193,0-0.384,0.009-0.575,0.014
				c-3.141-4.918-8.383-8.534-14.573-9.775c4.898,1.229,9.023,4.208,11.558,8.175c0.165-0.004,2.416,3.886,2.583,3.886
				c10.648,0,15.601,5.738,15.601,15.66c0,6.896-2.583,11.291-8.704,14.302c-1.173,8.875-9.287,15.748-19.129,15.748
				c-5.99,0-11.34-2.544-14.877-6.534c-0.591,0.05-1.189,0.079-1.794,0.079c-10.649,0-19.013-5.048-19.013-14.968
				c0-6.683,2.99-9.973,8.432-13.938c-0.145-0.856-0.75-8.421,1.267-10.437c4.792-4.793,6.963-8.909,11.25-11.038
				c-8.414,3.025-14.385,10.627-14.385,19.535c0,0.148,0.009,0.299,0.012,0.447c-6.787,3.604-11.366,10.396-11.366,18.196
				c0,11.563,10.059,20.937,22.468,20.937c0.707,0,1.403-0.035,2.093-0.097c4.121,4.649,10.356,7.617,17.336,7.617
				c11.469,0,20.924-8.011,22.291-18.353c7.133-3.506,11.997-10.479,11.997-18.521C84.783,130.227,74.724,120.853,62.314,120.853z" style="opacity:0.1;fill:#6E6E96;enable-background:new    ;"></path>
			<g>
				<path d="M30.336,153.865c0,0,11.635,2.277,11.635,13.662c0,0,3.132,19.342-8.976,33.026h27.96
					c-0.277-0.386-24.422-32.643,2.449-51.815C47.016,158.107,30.336,153.865,30.336,153.865z" style="fill:#EDE3DA;"></path>
				<path d="M60.955,202.054h-31.29l2.207-2.494c11.477-12.972,8.648-31.607,8.619-31.794l-0.019-0.238
					c0-9.079-8.398-11.683-10.144-12.124c-0.238-0.053-0.362-0.084-0.362-0.084l0.658-2.926c0,0,0.139,0.026,0.39,0.089
					c0.935,0.203,4.231,0.841,8.802,0.841c5.724,0,14.333-1.021,22.844-5.887l1.616,2.522c-6.631,4.732-10.568,10.711-11.702,17.772
					c-2.414,15.032,8.338,30.225,9.572,31.908l1.75,2.387L60.955,202.054z M36.13,199.054h21.995
					c-3.447-5.393-10.639-18.562-8.514-31.798c0.803-5.002,2.847-9.504,6.102-13.459c-6.069,2.011-11.71,2.526-15.897,2.526
					c-0.463,0-0.915-0.006-1.352-0.018c2.655,2.276,4.974,5.786,5.007,11.104C43.731,169.146,45.9,185.741,36.13,199.054z" style="fill:#CCCCDE;"></path>
			</g>
			<g>
				<path d="M37.703,131.025" style="fill:#D57E58;"></path>
			</g>
			<path d="M56.43,153.833c0,0-17.654,22.793-4.085,46.722h8.611
				C60.955,200.555,43.04,175.518,56.43,153.833z" style="opacity:0.11;fill:#6E6E96;enable-background:new    ;"></path>
		</g>
		<g style="display:inline;">
			<g>
				<path d="M255,141.26c0-10.828-9.42-19.604-21.04-19.604c-0.183,0-0.36,0.008-0.539,0.013
					c-3.669-5.744-10.396-9.595-18.091-9.595c-11.62,0-21.041,8.777-21.041,19.604c0,0.141,0.009,0.279,0.012,0.418
					c-6.354,3.375-10.644,9.739-10.644,17.043c0,10.825,9.421,19.604,21.04,19.604c0.66,0,1.312-0.032,1.96-0.089
					c3.858,4.354,9.698,7.134,16.233,7.134c10.739,0,19.596-7.499,20.875-17.185C250.445,155.316,255,148.786,255,141.26z" style="fill:#D7F7E4;"></path>
				<path d="M222.891,177.288c-6.468,0-12.564-2.573-16.848-7.085c-0.458,0.027-0.902,0.04-1.346,0.04
					c-12.429,0-22.54-9.468-22.54-21.104c0-7.289,4.053-14.077,10.637-17.92c0.262-11.426,10.271-20.646,22.536-20.646
					c7.59,0,14.745,3.652,18.885,9.583c12.312,0.128,22.285,9.545,22.285,21.103c0,7.612-4.335,14.567-11.367,18.328
					C243.377,169.733,233.962,177.288,222.891,177.288z M207.279,167.094l0.501,0.565c3.732,4.213,9.24,6.629,15.11,6.629
					c9.857,0,18.192-6.827,19.388-15.881l0.105-0.795l0.72-0.354c6.413-3.156,10.396-9.286,10.396-15.998
					c0-9.982-8.766-18.104-19.54-18.104c-0.117,0-0.231,0.004-0.346,0.007l-1.001,0.028l-0.456-0.715
					c-3.508-5.491-9.955-8.902-16.827-8.902c-10.775,0-19.541,8.122-19.541,18.104l0.031,1.31l-0.815,0.433
					c-6.074,3.227-9.848,9.25-9.848,15.719c0,9.982,8.766,18.104,19.54,18.104c0.591,0,1.189-0.027,1.829-0.083L207.279,167.094z" style="fill:#CCCCDE;"></path>
			</g>
			<path d="M233.605,120.949c-0.183,0-0.358,0.008-0.539,0.012
				c-2.94-4.606-7.852-7.992-13.646-9.154c4.586,1.15,8.449,3.94,10.822,7.655c0.154-0.004,2.263,3.639,2.419,3.639
				c9.971,0,14.608,5.374,14.608,14.665c0,6.459-2.42,10.573-8.148,13.396c-1.1,8.31-8.698,14.743-17.914,14.743
				c-5.607,0-10.619-2.382-13.934-6.118c-0.556,0.047-1.112,0.072-1.681,0.072c-9.975,0-17.806-4.727-17.806-14.016
				c0-6.257,2.8-9.339,7.896-13.055c-0.138-0.805-0.701-7.885,1.188-9.772c4.486-4.488,6.521-8.343,10.535-10.337
				c-7.879,2.833-13.471,9.952-13.471,18.292c0,0.14,0.006,0.276,0.012,0.419c-6.355,3.372-10.646,9.736-10.646,17.04
				c0,10.825,9.42,19.604,21.041,19.604c0.661,0,1.313-0.032,1.959-0.088c3.859,4.354,9.699,7.133,16.234,7.133
				c10.74,0,19.594-7.5,20.875-17.186c6.68-3.285,11.232-9.814,11.232-17.343C254.646,129.727,245.227,120.949,233.605,120.949z" style="opacity:0.1;fill:#6E6E96;enable-background:new    ;"></path>
			<g>
				<path d="M203.66,151.861c0,0,10.896,2.133,10.896,12.797c0,0,2.934,18.109-8.406,30.927h26.184
					c-0.26-0.358-22.87-30.565,2.294-48.521C219.279,155.836,203.66,151.861,203.66,151.861z" style="fill:#EDE3DA;"></path>
				<path d="M232.334,197.085H202.82l2.207-2.494c10.744-12.145,8.077-29.519,8.049-29.692l-0.02-0.24
					c0-8.432-7.802-10.853-9.426-11.264c-0.225-0.05-0.341-0.08-0.341-0.08l0.658-2.925c0,0,0.132,0.024,0.369,0.084
					c0.876,0.19,3.955,0.786,8.226,0.786c5.348,0,13.39-0.954,21.341-5.498l1.615,2.523c-6.195,4.421-9.87,10.006-10.924,16.602
					c-2.247,14.071,7.8,28.223,8.952,29.79l1.758,2.389L232.334,197.085z M209.273,194.085h20.232
					c-3.271-5.141-9.861-17.346-7.893-29.672c0.735-4.605,2.589-8.76,5.534-12.422c-5.576,1.803-10.748,2.269-14.604,2.269
					c-0.344,0-0.681-0.004-1.009-0.011c2.417,2.149,4.489,5.412,4.522,10.291C216.305,166.203,218.305,181.631,209.273,194.085z" style="fill:#CCCCDE;"></path>
			</g>
			<g>
				<path d="M210.561,130.477" style="fill:#D57E58;"></path>
			</g>
			<path d="M228.096,151.833c0,0-16.531,21.345-3.824,43.752h8.063
				C232.333,195.585,215.557,172.139,228.096,151.833z" style="opacity:0.11;fill:#6E6E96;enable-background:new    ;"></path>
		</g>
		<g style="display:inline;">
			<g>
				<path d="M218.298,143.02c0-16.622-14.461-30.095-32.299-30.095c-0.278,0-0.554,0.012-0.828,0.019
					c-5.632-8.817-15.959-14.729-27.771-14.729c-17.838,0-32.301,13.475-32.301,30.096c0,0.215,0.014,0.429,0.018,0.646
					c-9.755,5.18-16.339,14.947-16.339,26.158c0,16.62,14.462,30.096,32.3,30.096c1.014,0,2.018-0.05,3.008-0.137
					c5.926,6.688,14.889,10.95,24.921,10.95c16.489,0,30.081-11.514,32.048-26.379C211.307,164.602,218.298,154.572,218.298,143.02z" style="fill:#D7F7E4;"></path>
				<path d="M169.007,197.523c-9.841,0-19.103-3.962-25.538-10.897c-0.817,0.056-1.619,0.084-2.391,0.084
					c-18.638,0-33.8-14.174-33.8-31.596c0-11.046,6.23-21.324,16.322-27.037c0.134-17.315,15.246-31.362,33.8-31.362
					c11.535,0,22.398,5.615,28.566,14.71c0.011,0,0.021,0,0.032,0c18.637,0,33.799,14.173,33.799,31.595
					c0,11.516-6.635,22.026-17.371,27.612C199.969,186.018,185.751,197.523,169.007,197.523z M144.708,183.513l0.501,0.565
					c5.881,6.639,14.555,10.445,23.798,10.445c15.531,0,28.669-10.78,30.561-25.075l0.105-0.796l0.72-0.354
					c10.119-4.978,16.405-14.664,16.405-25.279c0-15.768-13.816-28.595-30.799-28.595c-0.179,0-0.355,0.006-0.532,0.011
					l-1.104,0.028l-0.455-0.713c-5.531-8.658-15.688-14.037-26.507-14.037c-16.983,0-30.801,12.828-30.801,28.596
					c0,0.108,0.004,0.217,0.009,0.325l0.028,1.213l-0.815,0.433c-9.587,5.09-15.543,14.605-15.543,24.833
					c0,15.768,13.817,28.596,30.8,28.596c0.919,0,1.887-0.044,2.877-0.131L144.708,183.513z" style="fill:#CCCCDE;"></path>
			</g>
			<path d="M185.456,111.841c-0.276,0-0.552,0.012-0.827,0.019
				c-4.516-7.071-12.051-12.269-20.949-14.052c7.041,1.766,12.971,6.049,16.614,11.751c0.237-0.006,3.474,5.586,3.713,5.586
				c15.308,0,22.429,8.248,22.429,22.511c0,9.914-3.715,16.231-12.513,20.562c-1.687,12.754-13.353,22.635-27.5,22.635
				c-8.61,0-16.302-3.655-21.387-9.396c-0.851,0.071-1.71,0.114-2.58,0.114c-15.31,0-27.332-7.254-27.332-21.516
				c0-9.604,4.298-14.337,12.12-20.039c-0.209-1.234-1.077-12.104,1.82-15.002c6.89-6.89,10.011-12.808,16.174-15.868
				c-12.096,4.349-20.679,15.277-20.679,28.08c0,0.215,0.011,0.429,0.017,0.646c-9.756,5.178-16.34,14.948-16.34,26.157
				c0,16.62,14.461,30.096,32.3,30.096c1.017,0,2.017-0.049,3.008-0.135c5.925,6.688,14.89,10.948,24.922,10.948
				c16.487,0,30.078-11.515,32.046-26.379c10.254-5.043,17.244-15.069,17.244-26.623
				C217.756,125.314,203.295,111.841,185.456,111.841z" style="opacity:0.1;fill:#6E6E96;enable-background:new    ;"></path>
			<g>
				<path d="M139.484,159.296c0,0,16.727,3.272,16.727,19.644c0,0,4.504,27.805-12.904,47.479h40.195
					c-0.398-0.554-35.107-46.922,3.521-74.484C163.464,165.396,139.484,159.296,139.484,159.296z" style="fill:#EDE3DA;"></path>
				<path d="M183.502,227.918h-43.525l2.207-2.494c16.743-18.923,12.591-45.974,12.547-46.244l-0.02-0.24
					c0-13.557-12.514-17.422-15.086-18.071c-0.336-0.074-0.511-0.118-0.511-0.118l0.658-2.926c0,0,0.192,0.037,0.539,0.123
					c1.349,0.295,6.156,1.228,12.811,1.228c8.306,0,20.8-1.482,33.157-8.544l1.615,2.523c-9.684,6.91-15.435,15.653-17.092,25.988
					c-3.509,21.884,12.091,43.911,13.882,46.351l1.752,2.388L183.502,227.918z M146.496,224.918h34.144
					c-4.574-6.922-15.959-26.543-12.799-46.251c1.263-7.872,4.701-14.873,10.259-20.91c-9.523,3.547-18.48,4.418-24.978,4.418
					c-1.403,0-2.726-0.039-3.956-0.104c4.314,3.1,8.506,8.286,8.545,16.75C158.048,181.028,161.4,205.689,146.496,224.918z" style="fill:#CCCCDE;"></path>
			</g>
			<g>
				<path d="M150.077,126.465" style="fill:#D57E58;"></path>
			</g>
			<path d="M176.997,159.251c0,0-25.378,32.767-5.873,67.164h12.378
				C183.502,226.415,157.748,190.423,176.997,159.251z" style="opacity:0.11;fill:#6E6E96;enable-background:new    ;"></path>
		</g>
		<g style="display:inline;">
			<g>
				<path d="M146.461,144.131c0-13.645-11.873-24.707-26.517-24.707c-0.229,0-0.454,0.01-0.68,0.016
					c-4.624-7.239-13.102-12.092-22.8-12.092c-14.644,0-26.518,11.063-26.518,24.707c0,0.178,0.012,0.354,0.015,0.529
					c-8.01,4.251-13.414,12.271-13.414,21.477c0,13.646,11.872,24.707,26.518,24.707c0.832,0,1.655-0.041,2.469-0.107
					c4.864,5.486,12.224,8.986,20.46,8.986c13.537,0,24.695-9.45,26.309-21.654C140.721,161.85,146.461,153.617,146.461,144.131z" style="fill:#D7F7E4;"></path>
				<path d="M105.994,189.146c-8.109,0-15.747-3.249-21.078-8.938c-0.646,0.04-1.257,0.06-1.851,0.06
					c-15.449,0-28.018-11.757-28.018-26.207c0-9.119,5.111-17.604,13.401-22.354c0.2-14.291,12.691-25.858,28.016-25.858
					c9.509,0,18.468,4.606,23.595,12.076c15.396,0.059,27.902,11.793,27.902,26.207c0,9.512-5.454,18.196-14.288,22.847
					C131.576,179.672,119.825,189.146,105.994,189.146z M86.159,177.104l0.498,0.561c4.778,5.39,11.827,8.481,19.337,8.481
					c12.617,0,23.288-8.749,24.821-20.351l0.105-0.796l0.72-0.354c8.216-4.044,13.32-11.904,13.32-20.516
					c0-12.797-11.223-23.207-25.017-23.207c-0.145,0-0.287,0.005-0.429,0.009l-1.059,0.028L118,120.248
					c-4.492-7.031-12.744-11.399-21.536-11.399c-13.795,0-25.018,10.411-25.018,23.207l0.03,1.423l-0.812,0.432
					c-7.783,4.13-12.617,11.852-12.617,20.151c0,12.797,11.223,23.207,25.018,23.207c0.734,0,1.502-0.033,2.347-0.103
					L86.159,177.104z" style="fill:#CCCCDE;"></path>
			</g>
			<path d="M119.498,118.535c-0.228,0-0.452,0.009-0.679,0.015
				c-3.707-5.805-9.894-10.072-17.199-11.537c5.78,1.45,10.648,4.966,13.641,9.647c0.194-0.005,2.851,4.586,3.048,4.586
				c12.567,0,18.414,6.771,18.414,18.48c0,8.139-3.05,13.325-10.271,16.881c-1.384,10.472-10.961,18.584-22.576,18.584
				c-7.069,0-13.384-3.004-17.559-7.715c-0.698,0.061-1.404,0.096-2.118,0.096c-12.568,0-22.438-5.957-22.438-17.664
				c0-7.885,3.528-11.771,9.949-16.452c-0.171-1.015-0.884-9.938,1.496-12.316c5.655-5.657,8.218-10.515,13.277-13.028
				c-9.93,3.571-16.978,12.542-16.978,23.053c0,0.177,0.01,0.353,0.015,0.528c-8.011,4.25-13.415,12.271-13.415,21.477
				c0,13.645,11.873,24.706,26.518,24.706c0.834,0,1.655-0.04,2.469-0.108c4.864,5.488,12.224,8.988,20.461,8.988
				c13.536,0,24.693-9.451,26.311-21.656c8.418-4.141,14.158-12.371,14.158-21.854C146.016,129.598,134.143,118.535,119.498,118.535
				z" style="opacity:0.1;fill:#6E6E96;enable-background:new    ;"></path>
			<g>
				<path d="M81.757,157.494c0,0,13.731,2.688,13.731,16.128c0,0,3.697,22.823-10.595,38.978h33
					c-0.328-0.455-28.824-38.521,2.89-61.151C101.443,162.502,81.757,157.494,81.757,157.494z" style="fill:#EDE3DA;"></path>
				<path d="M117.893,214.1h-36.33l2.207-2.494c13.636-15.412,10.273-37.523,10.237-37.744l-0.019-0.239
					c0-10.926-10.094-14.049-12.179-14.576c-0.278-0.062-0.422-0.098-0.422-0.098l0.658-2.926c0,0,0.161,0.03,0.451,0.103
					c1.105,0.241,5.025,1.001,10.455,1.001c6.786,0,16.995-1.211,27.088-6.98l1.615,2.523c-7.892,5.632-12.577,12.753-13.924,21.167
					c-2.861,17.866,9.887,35.854,11.351,37.847l1.753,2.388L117.893,214.1z M88.055,211.1h26.991
					c-3.932-6.047-12.823-21.844-10.278-37.738c0.989-6.177,3.596-11.703,7.777-16.517c-7.478,2.623-14.465,3.281-19.595,3.281
					c-0.833,0-1.63-0.017-2.39-0.046c3.334,2.627,6.39,6.832,6.426,13.424C97.28,175.44,99.933,195.348,88.055,211.1z" style="fill:#CCCCDE;"></path>
			</g>
			<g>
				<path d="M90.453,130.541" style="fill:#D57E58;"></path>
			</g>
			<path d="M112.553,157.458c0,0-20.835,26.899-4.821,55.142h10.162
				C117.894,212.6,96.75,183.049,112.553,157.458z" style="opacity:0.11;fill:#6E6E96;enable-background:new    ;"></path>
		</g>
		<g style="display:inline;">
			<g>
				<path d="M253.684,168.268c0-12.345-10.74-22.35-23.988-22.35c-0.203,0-0.407,0.008-0.611,0.014
					c-4.186-6.549-11.854-10.938-20.625-10.938c-13.248,0-23.986,10.007-23.986,22.35c0,0.161,0.012,0.318,0.014,0.479
					c-7.244,3.848-12.135,11.104-12.135,19.43c0,12.347,10.737,22.353,23.986,22.353c0.753,0,1.497-0.039,2.23-0.103
					c4.4,4.967,11.061,8.133,18.511,8.133c12.245,0,22.339-8.551,23.799-19.591C248.49,184.295,253.684,176.85,253.684,168.268z" style="fill:#D7F7E4;"></path>
				<path d="M217.079,209.136c-7.354,0-14.279-2.937-19.126-8.083c-0.561,0.035-1.094,0.053-1.615,0.053
					c-14.053,0-25.486-10.7-25.486-23.853c0-8.272,4.623-15.974,12.125-20.308c0.229-12.968,11.571-23.451,25.482-23.451
					c8.621,0,16.747,4.165,21.42,10.925c13.971,0.092,25.305,10.755,25.305,23.849c0,8.633-4.937,16.52-12.938,20.762
					C240.307,200.548,229.635,209.136,217.079,209.136z M199.19,197.943l0.501,0.564c4.294,4.848,10.632,7.628,17.388,7.628
					c11.341,0,20.933-7.862,22.312-18.287l0.105-0.795l0.719-0.354c7.383-3.637,11.969-10.699,11.969-18.432
					c0-11.496-10.088-20.85-22.488-20.85c-0.147,0-0.295,0.005-0.442,0.01l-0.976,0.027l-0.457-0.716
					c-4.039-6.319-11.458-10.245-19.361-10.245c-12.399,0-22.486,9.354-22.486,20.85l0.024,1.375l-0.807,0.43
					c-6.994,3.714-11.339,10.651-11.339,18.104c0,11.498,10.087,20.853,22.486,20.853c0.66,0,1.348-0.031,2.102-0.097
					L199.19,197.943z" style="fill:#CCCCDE;"></path>
			</g>
			<path d="M229.292,145.111c-0.206,0-0.409,0.011-0.614,0.016
				c-3.354-5.251-8.949-9.111-15.558-10.438c5.229,1.312,9.633,4.492,12.339,8.728c0.175-0.004,2.579,4.149,2.757,4.149
				c11.368,0,16.655,6.123,16.655,16.718c0,7.362-2.757,12.055-9.291,15.271c-1.252,9.473-9.915,16.813-20.423,16.813
				c-6.396,0-12.106-2.72-15.884-6.979c-0.631,0.055-1.271,0.086-1.916,0.086c-11.368,0-20.299-5.389-20.299-15.979
				c0-7.135,3.19-10.646,9.002-14.885c-0.156-0.918-0.803-8.987,1.353-11.141c5.116-5.117,7.435-9.513,12.011-11.785
				c-8.98,3.229-15.357,11.347-15.357,20.854c0,0.159,0.012,0.317,0.016,0.479c-7.246,3.846-12.137,11.103-12.137,19.428
				c0,12.343,10.738,22.35,23.988,22.35c0.754,0,1.496-0.035,2.231-0.1c4.401,4.966,11.06,8.132,18.509,8.132
				c12.245,0,22.338-8.552,23.799-19.591c7.615-3.744,12.811-11.192,12.811-19.771C253.279,155.118,242.541,145.111,229.292,145.111
				z" style="opacity:0.1;fill:#6E6E96;enable-background:new    ;"></path>
			<g>
				<path d="M195.15,180.355c0,0,12.422,2.431,12.422,14.588c0,0,3.345,20.646-9.584,35.259h29.853
					c-0.296-0.41-26.073-34.847,2.615-55.317C212.96,184.887,195.15,180.355,195.15,180.355z" style="fill:#EDE3DA;"></path>
				<path d="M227.841,231.702h-33.183l2.207-2.494c12.288-13.89,9.258-33.826,9.227-34.026l-0.02-0.238
					c0-9.771-9.034-12.57-10.906-13.045c-0.254-0.056-0.386-0.089-0.386-0.089l0.658-2.926c0,0,0.148,0.028,0.414,0.095
					c0.999,0.218,4.531,0.9,9.425,0.9c6.122,0,15.33-1.092,24.435-6.296l1.615,2.522c-7.106,5.071-11.325,11.482-12.537,19.054
					c-2.579,16.108,8.921,32.332,10.241,34.129l1.754,2.389L227.841,231.702z M201.134,228.702h23.868
					c-3.634-5.641-11.454-19.779-9.175-34.017c0.872-5.444,3.125-10.332,6.725-14.611c-6.594,2.236-12.737,2.805-17.274,2.805
					c-0.6,0-1.179-0.009-1.737-0.026c2.908,2.41,5.497,6.182,5.532,11.973C209.345,196.638,211.695,214.473,201.134,228.702z" style="fill:#CCCCDE;"></path>
			</g>
			<g>
				<path d="M203.018,155.975" style="fill:#D57E58;"></path>
			</g>
			<path d="M223.01,180.322c0,0-18.847,24.334-4.361,49.88h9.192
				C227.841,230.202,208.714,203.473,223.01,180.322z" style="opacity:0.11;fill:#6E6E96;enable-background:new    ;"></path>
		</g>
		<g style="display:inline;">
			<g>
				<path d="M89.418,166.416c0-13.111-11.408-23.738-25.479-23.738c-0.22,0-0.436,0.008-0.653,0.014
					c-4.443-6.954-12.589-11.615-21.907-11.615c-14.071,0-25.48,10.629-25.48,23.738c0,0.17,0.011,0.336,0.015,0.507
					c-7.695,4.086-12.889,11.795-12.889,20.639c0,13.108,11.407,23.738,25.479,23.738c0.8,0,1.59-0.041,2.372-0.105
					c4.674,5.273,11.745,8.64,19.659,8.64c13.007,0,23.729-9.082,25.279-20.81C83.903,183.439,89.418,175.531,89.418,166.416z" style="fill:#D7F7E4;"></path>
				<path d="M50.535,209.732c-7.797,0-15.143-3.122-20.277-8.591c-0.617,0.038-1.196,0.057-1.754,0.057
					c-14.876,0-26.979-11.322-26.979-25.238c0-8.772,4.911-16.937,12.877-21.517c0.213-13.746,12.233-24.867,26.977-24.867
					c9.146,0,17.763,4.425,22.703,11.602c14.81,0.073,26.836,11.367,26.836,25.238c0,9.149-5.242,17.508-13.734,21.992
					C75.152,200.621,63.844,209.732,50.535,209.732z M31.501,198.036l0.498,0.562c4.582,5.17,11.338,8.135,18.537,8.135
					c12.094,0,22.322-8.386,23.792-19.506l0.105-0.795l0.719-0.354c7.875-3.878,12.767-11.412,12.767-19.661
					c0-12.263-10.757-22.238-23.979-22.238c-0.162,0-0.321,0.005-0.48,0.01l-0.98,0.026l-0.457-0.715
					c-4.305-6.737-12.215-10.923-20.643-10.923c-13.223,0-23.98,9.976-23.98,22.238l0.036,1.397l-0.817,0.435
					c-7.459,3.96-12.093,11.36-12.093,19.313c0,12.263,10.757,22.238,23.979,22.238c0.693,0,1.429-0.033,2.249-0.101L31.501,198.036
					z" style="fill:#CCCCDE;"></path>
			</g>
			<path d="M63.511,141.822c-0.219,0-0.435,0.01-0.652,0.015
				c-3.562-5.577-9.506-9.678-16.525-11.085c5.553,1.393,10.231,4.771,13.106,9.27c0.186-0.004,2.739,4.406,2.928,4.406
				c12.076,0,17.692,6.506,17.692,17.758c0,7.82-2.929,12.806-9.87,16.222c-1.33,10.063-10.531,17.854-21.693,17.854
				c-6.792,0-12.859-2.886-16.871-7.412c-0.67,0.058-1.348,0.092-2.035,0.092c-12.076,0-21.561-5.723-21.561-16.975
				c0-7.574,3.391-11.308,9.561-15.807c-0.165-0.975-0.85-9.549,1.437-11.836c5.435-5.434,7.896-10.103,12.758-12.516
				c-9.541,3.43-16.313,12.051-16.313,22.147c0,0.17,0.01,0.338,0.014,0.508c-7.696,4.084-12.889,11.792-12.889,20.638
				c0,13.107,11.407,23.736,25.479,23.736c0.801,0,1.591-0.039,2.373-0.104c4.674,5.272,11.745,8.638,19.659,8.638
				c13.006,0,23.728-9.081,25.278-20.808c8.089-3.979,13.604-11.892,13.604-21.002C88.991,152.449,77.583,141.822,63.511,141.822z" style="opacity:0.1;fill:#6E6E96;enable-background:new    ;"></path>
			<g>
				<path d="M27.248,179.256c0,0,13.193,2.583,13.193,15.496c0,0,3.553,21.932-10.179,37.45h31.707
					c-0.314-0.437-27.694-37.015,2.777-58.759C46.163,184.066,27.248,179.256,27.248,179.256z" style="fill:#EDE3DA;"></path>
				<path d="M61.969,233.702H26.932l2.207-2.494c13.083-14.784,9.855-36.005,9.821-36.217l-0.019-0.239
					c0-10.454-9.661-13.443-11.658-13.948c-0.266-0.059-0.405-0.094-0.405-0.094l0.658-2.926c0,0,0.155,0.029,0.434,0.099
					c1.061,0.231,4.819,0.96,10.029,0.96c6.514,0,16.314-1.163,26.002-6.701l1.616,2.522c-7.567,5.4-12.06,12.228-13.353,20.293
					c-2.748,17.136,9.488,34.414,10.893,36.328l1.751,2.388L61.969,233.702z M33.418,230.702h25.708
					c-3.81-5.884-12.263-21.012-9.824-36.22c0.941-5.872,3.401-11.134,7.34-15.726c-7.116,2.464-13.756,3.086-18.643,3.086
					c-0.734,0-1.44-0.014-2.115-0.038c3.159,2.54,6.021,6.566,6.057,12.829C42.226,196.521,44.755,215.578,33.418,230.702z" style="fill:#CCCCDE;"></path>
			</g>
			<g>
				<path d="M35.603,153.357" style="fill:#D57E58;"></path>
			</g>
			<path d="M56.838,179.221c0,0-20.02,25.848-4.633,52.981h9.764
				C61.969,232.202,41.654,203.811,56.838,179.221z" style="opacity:0.11;fill:#6E6E96;enable-background:new    ;"></path>
		</g>
	</g>
	<rect height="35.68" width="3" style="fill:#6E6E96;" y="74.198" x="95.437"></rect>
	<rect height="35.68" width="3" style="fill:#6E6E96;" y="109.079" x="129.411"></rect>
	<rect height="35.68" width="3" style="fill:#6E6E96;" y="109.079" x="64.025"></rect>
	<rect height="23.708" width="4.167" style="opacity:0.15;fill:#FFFFFF;enable-background:new    ;" y="114.801" x="125.142"></rect>
	<rect height="23.708" width="4.808" style="opacity:0.15;fill:#6E6E96;enable-background:new    ;" y="114.801" x="187.964"></rect>
	<g>
		<path d="M118.542,43.955c0,0-27.752,46.553-83.259,46.553c0,0-3.583,104.746,83.259,153.986
			c0,0,92.3-44.764,92.3-158.462C210.841,86.032,148.827,94.088,118.542,43.955z" style="fill:#A3F0B0;"></path>
		<path d="M118.542,244.994c-0.085,0-0.17-0.021-0.247-0.065c-45.002-25.517-65.312-66.151-74.426-95.746
			c-9.87-32.051-9.095-58.429-9.085-58.692c0.009-0.27,0.23-0.483,0.5-0.483c54.591,0,82.553-45.846,82.829-46.309
			c0.09-0.151,0.252-0.244,0.428-0.244c0.184-0.045,0.339,0.091,0.43,0.242c23.07,38.189,65.18,42.312,82.215,42.312
			c5.849,0,9.442-0.453,9.592-0.473c0.142-0.014,0.286,0.026,0.395,0.121c0.107,0.095,0.17,0.232,0.17,0.375
			c0,58.893-25.167,98.961-46.28,122.204c-22.875,25.184-46.07,36.596-46.301,36.708
			C118.691,244.978,118.617,244.994,118.542,244.994z M35.773,91.006c-0.055,3.716-0.035,28.392,9.062,57.915
			c9.047,29.36,29.177,69.65,73.722,95.007c2.486-1.261,24.275-12.694,45.792-36.395c20.915-23.036,45.833-62.691,45.991-120.941
			c-1.251,0.131-4.505,0.417-9.155,0.417c-17.102,0-59.23-4.121-82.651-42.106C114.774,50.694,86.895,90.75,35.773,91.006z" style="fill:#6E6E96;"></path>
	</g>
	<path d="M120.289,57.93c28.643,44.92,86.164,32.984,92.299,32.338c0.355-4.833,0,0,0-5.109
		c0,0-62.014,8.056-92.299-42.078c0,0-27.753,46.554-83.26,46.554c0,0-0.189-3.409,0.591,5.819
		C97.398,99.792,120.289,57.93,120.289,57.93z" style="fill:#B0EDC1;"></path>
	<path d="M119.177,44.94c0,0-27.752,46.554-83.259,46.554c0,0-2.71,104.747,84.133,153.984
		c0,0,95.262-44.763,91.426-158.46C211.477,87.017,149.462,95.073,119.177,44.94z M119.952,230.009
		C48.02,189.225,50.988,100.717,50.988,100.717c44.538-1.438,68.964-36.812,68.964-36.812c25.084,35.832,76.448,33.104,76.45,33.104
		C196.402,191.186,119.952,230.009,119.952,230.009z" style="fill:#F0F0FF;"></path>
	<path d="M119.177,43.979v200.539c0,0,98.072-47.442,92.3-158.461
		C211.477,86.056,145.614,93.704,119.177,43.979z" style="opacity:0.15;fill:#6E6E96;enable-background:new    ;"></path>
	<path d="M147.898,252.559H92.128c-0.829,0-1.5-0.672-1.5-1.5
		s0.671-1.5,1.5-1.5h55.771c0.828,0,1.5,0.672,1.5,1.5S148.727,252.559,147.898,252.559z" style="opacity:0.38;fill:#6E6E96;enable-background:new    ;"></path>
	<path d="M187.322,252.559h-16.346c-0.828,0-1.5-0.672-1.5-1.5
		s0.672-1.5,1.5-1.5h16.346c0.828,0,1.5,0.672,1.5,1.5S188.15,252.559,187.322,252.559z" style="opacity:0.14;fill:#6E6E96;enable-background:new    ;"></path>
	<path d="M70.013,252.559H58.474c-0.829,0-1.5-0.672-1.5-1.5
		s0.671-1.5,1.5-1.5h11.539c0.829,0,1.5,0.672,1.5,1.5S70.842,252.559,70.013,252.559z" style="opacity:0.14;fill:#6E6E96;enable-background:new    ;"></path>
	<g>
		<path d="M91.767,142.282c-2.049,2.312-2.054,6.192-0.011,8.62l20.696,24.588
			c2.043,2.428,5.467,2.498,7.609,0.156l43.656-47.736c2.143-2.342,2.271-5.664,0.288-7.382c-1.983-1.719-5.64-1.511-8.126,0.461
			l-35.192,27.924c-2.486,1.973-6.649,2.101-9.251,0.285l-11.211-7.821C97.622,139.561,93.816,139.969,91.767,142.282z" style="fill:#FFFFFF;"></path>
		<path d="M116.318,178.858c-1.902,0-3.729-0.876-5.013-2.402l-20.696-24.588
			c-2.509-2.981-2.493-7.728,0.036-10.581c1.433-1.617,3.574-2.545,5.875-2.545c1.669,0,3.247,0.485,4.564,1.404l11.211,7.821
			c0.936,0.653,2.191,1.013,3.537,1.013c1.499,0,2.929-0.453,3.923-1.242l35.192-27.924c1.563-1.24,3.598-1.951,5.582-1.951
			c1.736,0,3.319,0.543,4.459,1.531c1.142,0.989,1.821,2.413,1.914,4.009c0.112,1.941-0.645,3.953-2.078,5.52l-43.655,47.736
			C119.871,178.077,118.148,178.858,116.318,178.858z M96.519,141.742c-1.442,0-2.765,0.56-3.629,1.534
			c-1.555,1.755-1.548,4.805,0.013,6.66l20.696,24.588c0.724,0.86,1.689,1.334,2.718,1.334c0.978,0,1.915-0.436,2.636-1.225
			l43.656-47.736c0.89-0.973,1.361-2.183,1.296-3.321c-0.032-0.553-0.212-1.333-0.884-1.916c-0.594-0.515-1.479-0.798-2.494-0.798
			c-1.319,0-2.675,0.474-3.717,1.301l-35.192,27.923c-1.538,1.221-3.593,1.893-5.788,1.893c-1.953,0-3.819-0.551-5.253-1.552
			l-11.211-7.821C98.567,142.049,97.556,141.742,96.519,141.742z" style="fill:#6E6E96;"></path>
	</g>
	<path d="M51.243,109.079c0,0,47.866-3.214,67.934-29.176
		c0,0,33.382,28.544,76.726,25.33l0.5-9.185c0,0-39.684,5.489-77.226-32.053c0,0-28.078,35.76-68.189,35.76L51.243,109.079z" style="opacity:0.15;fill:#6E6E96;enable-background:new    ;"></path>
	<path d="M53.251,111.087c0,0,5.348,77.951,65.801,108.24
		c0,0,70.526-36.841,76.851-114.095c0,0-3.043,79.274-75.764,122.406C120.139,227.639,61.01,200.445,53.251,111.087z" style="opacity:0.36;fill:#FFFFFF;enable-background:new    ;"></path>
	<path d="M157.197,127.055l-36.816,40.257
		c-2.142,2.342-5.565,2.271-7.609-0.156l-21.005-24.874c-1.439,0.208-4.893,2.94-3.164,6.729c1.283,2.813,1.43,6.193,3.474,8.62
		l20.696,24.589c2.043,2.428,5.467,2.497,7.609,0.155l43.656-47.735c2.142-2.342,1.951-12.396-0.032-14.114
		C162.273,119.027,164.005,120.528,157.197,127.055z" style="opacity:0.15;fill:#6E6E96;enable-background:new    ;"></path>
	<path d="M211.448,88.802
		c-2.732,105.136-91.463,148.767-91.463,148.767C49.282,197.48,37.939,118.681,36.165,91.49c-0.105,0-0.208,0.004-0.313,0.004
		c0,0-2.71,104.747,84.133,153.984C119.985,245.479,214.227,201.176,211.448,88.802z" style="opacity:0.15;fill:#6E6E96;enable-background:new    ;"></path>
	<path d="M119.658,45.901c0,0-27.752,46.554-83.26,46.554
		c61.019,0,83.26-37.958,83.26-37.958c27.186,45.005,95.396,33.481,92.299,33.481C211.956,87.979,149.943,96.035,119.658,45.901z
		 M36.398,92.455c0,0-0.011,0.418-0.009,1.21C36.389,92.877,36.398,92.455,36.398,92.455z" style="opacity:0.61;fill:#FFFFFF;enable-background:new    ;"></path>
	<path d="M120.051,246.979c-0.256,0-0.511-0.065-0.74-0.195c-45.285-25.675-65.957-66.546-75.324-96.311
		c-10.136-32.208-9.576-58.753-9.569-59.017c0.021-0.813,0.686-1.461,1.5-1.461c54.03,0,81.697-45.364,81.97-45.822
		c0.27-0.453,0.757-0.73,1.284-0.732c0.001,0,0.003,0,0.004,0c0.525,0,1.012,0.275,1.284,0.725
		c22.807,37.754,64.497,41.83,81.362,41.83c5.801,0,9.426-0.459,9.462-0.464c0.418-0.052,0.841,0.071,1.163,0.345
		s0.515,0.67,0.528,1.092c1.999,59.24-23.188,99.549-44.669,122.932c-23.267,25.327-47.377,36.823-47.618,36.937
		C120.486,246.932,120.269,246.979,120.051,246.979z M37.413,92.983c0.043,5.915,0.8,29.193,9.467,56.686
		c9.163,29.066,29.3,68.915,73.221,94.111c4.063-2.055,25.394-13.452,46.079-36c20.869-22.749,45.306-61.812,43.846-119.107
		c-1.651,0.142-4.48,0.321-8.203,0.321c-17.072,0-58.846-4.071-82.681-41.271C112.996,56.66,85.51,92.258,37.413,92.983z
		 M119.952,231.509c-0.255,0-0.511-0.065-0.74-0.195c-37.589-21.312-54.546-55.708-62.152-80.81
		c-8.227-27.148-7.579-49.614-7.571-49.837c0.026-0.79,0.661-1.423,1.451-1.449c43.229-1.396,67.538-35.819,67.779-36.167
		c0.279-0.404,0.739-0.646,1.229-0.646c0.001,0,0.003,0,0.004,0c0.49,0,0.949,0.238,1.229,0.639
		c5.339,7.627,26.362,32.513,72.71,32.513c1.544,0,2.409-0.044,2.432-0.046c0.408-0.022,0.812,0.126,1.111,0.41
		c0.299,0.283,0.468,0.676,0.468,1.088c0,49.12-20.993,83.022-38.604,102.813c-19.08,21.441-38.473,31.426-38.667,31.524
		C120.417,231.455,120.185,231.509,119.952,231.509z M52.473,102.158c0.007,5.25,0.544,24.708,7.487,47.571
		c7.404,24.385,23.824,57.732,60.016,78.566c3.607-1.979,20.488-11.791,37.162-30.559c17.043-19.182,37.324-51.898,37.758-99.186
		c-0.296,0.003-0.631,0.006-1.004,0.006c-5.076,0-18.475-0.485-33.22-4.98c-17.61-5.368-31.307-14.496-40.747-27.15
		C114.381,73.45,90.776,100.282,52.473,102.158z" style="fill:#6E6E96;"></path>
</g>
</svg>
