<?xml version="1.0" standalone="yes"?>
<svg xmlns="http://www.w3.org/2000/svg" width="740" height="229">
<path style="fill:#015777; stroke:none;" d="M100 22.4282C80.7561 25.1851 62.0708 33.4494 48.0039 47.0394C2.66602 90.8401 14.7532 172.123 72 199.219C83.0915 204.469 95.7345 207.424 108 207.961C121.258 208.541 135.469 207.117 148 202.564C161.814 197.545 172.795 189.447 182.985 179C185.681 176.237 193.371 169.897 190.338 165.518C185.046 157.876 171.584 151.692 164 146.291C161.549 144.546 158.234 141.203 155 141.306C148.465 141.516 140.088 153.813 134 157.099C113.714 168.046 88.9346 158.774 78.3241 139C61.8298 108.261 82.0957 64.101 120 68.1736C127.948 69.0276 136.027 72.9581 142 78.1852C145.137 80.9306 149.329 87.392 154 87.1682C157.657 86.993 161.274 82.9789 164 80.8812C171.692 74.9611 182.517 69.0853 188.624 61.5363C193.633 55.3456 177.281 43.042 173 39.669C153 23.9104 124.944 18.8548 100 22.4282M212 25L212 204L263 204L263 141L347 141L347 99L263 99L263 69L356 69L356 25L212 25M377 25L377 204L523 204L523 161L427 161L427 134L513 134L513 94L427 94L427 68L521 68L521 25L377 25z"/>
<path style="fill:#0f89ff; stroke:none;" d="M538 25C552.79 56.2633 578.529 85.3761 598 114L600 114C606.756 103.985 613.633 94.0509 620.333 84C622.785 80.3224 627.429 75.5009 628.02 71C628.833 64.8054 619.338 54.8799 615.974 50C611.366 43.3139 605.66 30.2194 598.674 26.0278C594.31 23.4094 585.934 25 581 25L538 25z"/>
<path style="fill:#81bd01; stroke:none;" d="M720 204L682.344 148L659 115L659 114L682.667 81L720 25L677 25L659.465 26.0278L645 46L614 93L600.789 115L614.667 137L645.667 184L659.465 202.972L677 204L720 204z"/>
<path style="fill:#6ab233; stroke:none;" d="M628 71L629 72L628 71M627 73L628 74L627 73M626 74L627 75L626 74M625 76L626 77L625 76M624 77L625 78L624 77M623 79L624 80L623 79M622 80L623 81L622 80M621 82L622 83L621 82M620 83L621 84L620 83M618 86L619 87L618 86M616 89L617 90L616 89M614 92L615 93L614 92M612 95L613 96L612 95M611 96L612 97L611 96M610 98L611 99L610 98M609 99L610 100L609 99M608 101L609 102L608 101M607 102L608 103L607 102M606 104L607 105L606 104M605 105L606 106L605 105M604 107L605 108L604 107M603 108L604 109L603 108M601 111L602 112L601 111M599 114L600 115L599 114z"/>
<path style="fill:#0f89ff; stroke:none;" d="M598 115L538 204L581 204C585.934 204 594.31 205.591 598.674 202.972C605.602 198.816 611.519 185.687 615.999 179C619.322 174.04 628.84 164.241 628.02 158C627.431 153.514 622.793 148.654 620.33 145C613.587 134.995 606.337 125.269 600 115L598 115z"/>
<path style="fill:#6ab233; stroke:none;" d="M600 116L601 117L600 116M601 117L602 118L601 117M603 120L604 121L603 120M605 123L606 124L605 123M607 126L608 127L607 126M609 129L610 130L609 129M610 130L611 131L610 130M611 132L612 133L611 132M612 133L613 134L612 133M613 135L614 136L613 135M614 136L615 137L614 136M615 138L616 139L615 138M616 139L617 140L616 139M618 142L619 143L618 142M620 145L621 146L620 145M622 148L623 149L622 148M624 151L625 152L624 151M626 154L627 155L626 154M627 155L628 156L627 155M628 157L629 158L628 157z"/>
</svg>
