<?xml version="1.0" standalone="no"?>
<!DOCTYPE svg PUBLIC "-//W3C//DTD SVG 1.1//EN" "http://www.w3.org/Graphics/SVG/1.1/DTD/svg11.dtd">
<svg t="1653011390479" class="icon" viewBox="0 0 1024 1024" version="1.1" xmlns="http://www.w3.org/2000/svg" p-id="5419"
  xmlns:xlink="http://www.w3.org/1999/xlink" width="200" height="200">
  <path
    d="M0 0 L0 1024 L1024 1024 L1024 0 Z"
    fill="rgb(234, 158, 68)"
  ></path>
  <g transform="translate(-40, -40) scale(0.6)">
    <path
    d="M512 149.333333c200.298667 0 362.666667 162.368 362.666667 362.666667s-162.368 362.666667-362.666667 362.666667S149.333333 712.298667 149.333333 512 311.701333 149.333333 512 149.333333z m0 64c-164.949333 0-298.666667 133.717333-298.666667 298.666667s133.717333 298.666667 298.666667 298.666667 298.666667-133.717333 298.666667-298.666667-133.717333-298.666667-298.666667-298.666667z"
    p-id="5420" fill="white"></path>
    <path d="M663.466667 440.746667l-21.333334 55.466666h-178.346666v29.866667h166.4l-21.333334 55.466667h-136.533333c18.773333 61.866667 55.466667 96 100.693333 96a229.973333 229.973333 0 0 0 109.226667-34.133334v101.12a447.573333 447.573333 0 0 1-118.186667 23.893334 204.8 204.8 0 0 1-152.746666-75.946667 280.32 280.32 0 0 1-48.213334-110.933333H307.2l20.053333-55.466667h29.866667v-29.866667H307.2l20.053333-55.466666h36.266667C391.253333 324.266667 469.333333 256 580.266667 256a208.213333 208.213333 0 0 1 136.533333 46.933333L682.666667 390.826667a182.613333 182.613333 0 0 0-109.226667-44.8c-46.933333 0-78.933333 30.72-98.986667 94.72z" p-id="3459"
      transform="scale(0.9) translate(20 50)" fill="white"
    ></path>
  </g>
  <g transform="translate(450, -40) scale(0.6)">
    <path
    d="M512 149.333333c200.298667 0 362.666667 162.368 362.666667 362.666667s-162.368 362.666667-362.666667 362.666667S149.333333 712.298667 149.333333 512 311.701333 149.333333 512 149.333333z m0 64c-164.949333 0-298.666667 133.717333-298.666667 298.666667s133.717333 298.666667 298.666667 298.666667 298.666667-133.717333 298.666667-298.666667-133.717333-298.666667-298.666667-298.666667z"
    p-id="5420" fill="white"></path>
    <path d="M554.666667 472.106667v-213.333334c77.226667 13.013333 128 60.16 128 103.04h85.333333c0-95.146667-92.373333-173.866667-213.333333-189.226666V128h-85.333334v45.44c-120.96 15.36-213.333333 94.08-213.333333 189.226667s92.373333 173.866667 213.333333 189.226666v213.333334c-77.226667-13.866667-128-61.226667-128-103.893334h-85.333333c0 95.146667 92.373333 173.866667 213.333333 189.226667V896h85.333334v-45.44c120.96-15.36 213.333333-94.08 213.333333-189.226667s-92.373333-173.866667-213.333333-189.226666zM341.333333 362.666667c0-42.666667 50.773333-90.026667 128-103.04v206.08c-77.226667-13.013333-128-60.373333-128-103.04z m213.333334 401.706666v-206.08c77.226667 13.013333 128 60.16 128 103.04s-50.773333 90.026667-128 103.04z" p-id="4450"
     transform="scale(0.7) translate(220 220)" fill="white"
    ></path>
  </g>
  <g transform="translate(-40, 450) scale(0.6)">
    <path
    d="M512 149.333333c200.298667 0 362.666667 162.368 362.666667 362.666667s-162.368 362.666667-362.666667 362.666667S149.333333 712.298667 149.333333 512 311.701333 149.333333 512 149.333333z m0 64c-164.949333 0-298.666667 133.717333-298.666667 298.666667s133.717333 298.666667 298.666667 298.666667 298.666667-133.717333 298.666667-298.666667-133.717333-298.666667-298.666667-298.666667z"
    p-id="5420" fill="white"></path>
    <path d="M739.413333 256h-125.866666l-103.253334 213.333333-98.133333-213.333333h-128l136.533333 257.28H320v62.72h133.546667v20.48H320v63.146667h133.546667V768h115.2v-108.373333h135.253333v-63.146667h-135.253333v-20.48h135.253333v-62.72h-101.546667L739.413333 256z" p-id="2994"
    transform="scale(0.7) translate(220 220)" fill="white"
    ></path>
  </g>
  <g transform="translate(450, 450) scale(0.6)">
    <path
    d="M512 149.333333c200.298667 0 362.666667 162.368 362.666667 362.666667s-162.368 362.666667-362.666667 362.666667S149.333333 712.298667 149.333333 512 311.701333 149.333333 512 149.333333z m0 64c-164.949333 0-298.666667 133.717333-298.666667 298.666667s133.717333 298.666667 298.666667 298.666667 298.666667-133.717333 298.666667-298.666667-133.717333-298.666667-298.666667-298.666667z"
    p-id="5420" fill="white"></path>
    <path d="M277.333333 896 277.333333 842.666667C317.44 823.04 351.573333 792.32 375.893333 755.2 400.213333 718.08 412.586667 676.266667 413.013333 629.333333L412.16 587.52 408.32 554.666667 298.666667 554.666667 298.666667 469.333333 401.066667 469.333333C394.666667 433.92 390.826667 397.226667 389.546667 352 390.826667 282.026667 411.306667 227.413333 451.413333 188.16 490.666667 149.333333 544.853333 128 610.986667 128 641.28 128 667.306667 130.986667 688.213333 136.533333 709.546667 141.653333 725.333333 148.053333 738.56 155.733333L715.093333 229.973333C704 224 690.773333 218.453333 673.706667 213.333333 656.213333 209.066667 635.306667 206.933333 610.986667 206.506667 565.333333 207.36 533.333333 221.44 512 248.746667 490.666667 275.626667 481.706667 310.613333 482.133333 353.28L486.4 416.853333 494.933333 469.333333 661.333333 469.333333 661.333333 554.666667 503.04 554.666667C506.88 597.333333 505.173333 640 497.066667 680.96 484.266667 732.16 458.24 775.68 419.413333 810.666667L768 810.666667 768 896 277.333333 896Z" p-id="3149"
    transform="scale(0.6) translate(300 300)" fill="white"
    ></path>
  </g>
</svg>