<svg t="1647782230604" class="icon" viewBox="0 0 1024 1024" version="1.1" xmlns="http://www.w3.org/2000/svg" p-id="25708" width="200" height="200"><path d="M512 106.667A405.333 405.333 0 1 1 106.667 512 405.333 405.333 0 0 1 512 106.667m0-64A469.333 469.333 0 1 0 981.333 512 469.333 469.333 0 0 0 512 42.667z" p-id="25709"></path><path d="M629.12 529.92a268.587 268.587 0 0 0-85.333-42.667c-12.16-4.053-24.96-7.466-37.76-10.453s-18.56-5.547-26.24-8.32a145.493 145.493 0 0 1-43.947-23.04 42.667 42.667 0 0 1-16.853-34.133 46.72 46.72 0 0 1 21.333-39.68 96.213 96.213 0 0 1 39.04-16.214A156.16 156.16 0 0 1 512 352a146.133 146.133 0 0 1 32.64 3.627 111.573 111.573 0 0 1 21.333 6.826 75.733 75.733 0 0 1 31.36 25.814 56.32 56.32 0 0 1 10.454 33.066h64A119.893 119.893 0 0 0 650.453 352a139.52 139.52 0 0 0-58.666-47.787 180.48 180.48 0 0 0-47.36-13.44v-56.106h-64v55.253A163.2 163.2 0 0 0 402.56 320a110.72 110.72 0 0 0-47.147 90.88 106.667 106.667 0 0 0 39.467 82.987 237.013 237.013 0 0 0 85.333 41.173l10.667 3.2a354.987 354.987 0 0 1 53.333 16.64 175.147 175.147 0 0 1 43.947 23.68 42.667 42.667 0 0 1 16.853 34.133 46.72 46.72 0 0 1-21.333 39.68 96.213 96.213 0 0 1-39.04 16.214A156.16 156.16 0 0 1 512 672a146.133 146.133 0 0 1-32.64-3.627 111.573 111.573 0 0 1-21.333-6.826 75.733 75.733 0 0 1-31.36-25.814 56.32 56.32 0 0 1-10.454-33.066h-64A119.893 119.893 0 0 0 373.547 672a139.52 139.52 0 0 0 58.666 47.787 180.693 180.693 0 0 0 47.36 13.44v56.106h64V734.08A163.2 163.2 0 0 0 621.44 704a110.72 110.72 0 0 0 47.147-90.88 106.667 106.667 0 0 0-39.467-83.2z" p-id="25710"></path></svg>