<svg t="1647907802471" class="icon" viewBox="0 0 1024 1024" version="1.1" xmlns="http://www.w3.org/2000/svg"
  p-id="28868" width="200" height="200">
  <path
    d="M648.844 12.504l-12.5-12.5H21.348v1023.992H789.342V153.002l-12.5-12.5-127.998-127.998zM640 64.004l85.342 85.326H640V64.004zM64.004 981.308V42.676h533.34v149.326h149.31v789.306H64.004z"
    p-id="28869"></path>
  <path
    d="M640 554.688H170.66A21.3 21.3 0 0 0 149.348 576a21.298 21.298 0 0 0 21.312 21.308H640c11.782 0 21.344-9.532 21.344-21.308 0-11.782-9.562-21.312-21.344-21.312zM640 682.684H170.66c-11.782 0-21.312 9.532-21.312 21.312s9.532 21.312 21.312 21.312H640c11.782 0 21.344-9.532 21.344-21.312s-9.562-21.312-21.344-21.312zM405.344 810.684H170.66c-11.782 0-21.312 9.532-21.312 21.312s9.532 21.312 21.312 21.312h234.686c11.782 0 21.312-9.532 21.312-21.312s-9.532-21.312-21.314-21.312zM1002.652 212.892c0-47.14-38.188-85.344-85.312-85.344s-85.342 38.204-85.342 85.344v575.978h26.466l-26.466 92.438 85.342 56.906 85.312-56.906-26.438-92.438h26.438V212.892z m-128 0c0-23.532 19.156-42.672 42.688-42.672 23.5 0 42.656 19.14 42.656 42.672v533.322h-85.344V212.892z m78.406 650.23l-35.718 23.812-35.75-23.812 21.25-74.25h28.968l21.25 74.25zM170.66 320.002c5.468 0 10.938-2.078 15.094-6.25l6.25-6.25v97.826c0 11.782 9.562 21.344 21.344 21.344h212.968c11.782 0 21.344-9.562 21.344-21.344v-98.186l6.592 6.61a21.296 21.296 0 0 0 15.094 6.25c5.438 0 10.906-2.078 15.062-6.25 8.344-8.328 8.344-21.828 0.032-30.172l-149.22-149.328c-8.344-8.328-21.842-8.344-30.186-0.016-0.032 0.046-0.062 0.094-0.124 0.14a0.306 0.306 0 0 1-0.124 0.11L155.596 283.58c-8.344 8.328-8.344 21.828-0.032 30.172a21.41 21.41 0 0 0 15.096 6.25zM404.97 384H341.5v-63.998c0-11.782-9.532-21.328-21.312-21.328-11.78 0-21.342 9.546-21.342 21.328V384h-64.188v-119.124l85.468-85.376 84.844 84.938V384z"
    p-id="28870"></path>
</svg>