<?xml version="1.0" encoding="UTF-8"?>
<svg viewBox="0 0 97 28" version="1.1" xmlns="http://www.w3.org/2000/svg" xmlns:xlink="http://www.w3.org/1999/xlink">
    <title>GridX Logo</title>
    <g id="Page-1" stroke="none" stroke-width="1" fill="none" fill-rule="evenodd">
        <g id="logo" fill-rule="nonzero">
            <path d="M12.6984109,0 C5.22159558,0 0,5.75669052 0,13.9997969 C0,22.2429034 5.22159558,28 12.6984109,28 C16.0574546,28 18.2917105,26.9424 20.6678752,24.2273248 L20.8113965,24.0632425 L21.5511762,27.3586981 L24.3478261,27.3586981 L24.3478261,13.3950479 L13.1838031,13.3950479 L13.1838031,16.7558927 L20.3018152,16.7558927 L20.2997994,16.8696132 C20.2219915,21.6324684 17.3785763,24.4502981 12.6967983,24.374349 C6.61770317,24.374349 4.46004569,18.7853962 4.46004569,13.9997969 C4.46004569,9.21379148 6.61770317,3.62483863 12.6984109,3.62483863 C16.4940658,3.62483863 19.2258085,5.72460511 19.6870118,8.98350766 L24.0337724,8.98350766 C23.3262446,3.43841836 18.9944005,0 12.6984109,0" id="Fill-2" fill="#7E8083"></path>
            <path d="M29.6231884,27.5942029 L33.7571113,27.5942029 L33.7571113,18.390168 C33.7571113,14.3139789 35.9541584,11.5755951 39.2239999,11.5755951 C39.701941,11.5755951 40.2008771,11.6436674 40.6833463,11.709294 C40.7846154,11.7227455 40.8850615,11.7361969 40.9855072,11.7496483 L40.9855072,7.81164205 C40.9303444,7.80552774 40.8764164,7.79778298 40.8204302,7.79085346 C40.5326774,7.75294492 40.2058168,7.71014493 39.4537081,7.71014493 C36.7898349,7.71014493 34.2659272,9.94348889 33.7888093,11.940414 L33.7682262,12.0268292 L33.4891185,12.0268292 L33.4891185,8.23964189 L29.6231884,8.23964189 L29.6231884,27.5942029" id="Fill-3" fill="#7E8083"></path>
            <polygon id="Fill-4" fill="#7E8083" points="43.8260869 27.5942029 47.884058 27.5942029 47.884058 8.52173913 43.8260869 8.52173913"></polygon>
            <path d="M61.1099866,24.8341934 C57.3102592,24.8341934 55.6093671,21.4312857 55.6093671,18.0583703 C55.6093671,14.5825083 57.0741709,10.8675188 61.1858431,10.8675188 C64.5787029,10.8675188 66.6860563,13.5364263 66.6860563,17.8322123 C66.6860563,21.3178014 64.9620423,24.8341934 61.1099866,24.8341934 Z M59.8662623,7.70211753 C56.023942,7.70211753 51.5362319,10.325226 51.5362319,17.718728 C51.5362319,24.060879 54.9887223,28 60.5449154,28 C63.2696692,28 65.4869539,26.8404336 66.4751182,24.898231 L66.5063536,24.8374359 L66.7615074,24.8374359 L66.7615074,27.4731086 L70.6086957,27.4731086 L70.6086957,0.811594203 L66.5351546,0.811594203 L66.5351546,10.7520081 L66.2856795,10.7520081 L66.2536333,10.6989136 C64.8955156,8.48921222 62.0636706,7.70211753 59.8662623,7.70211753 L59.8662623,7.70211753 Z" id="Fill-5" fill="#7E8083"></path>
            <polyline id="Fill-6" fill="#FF9724" points="43.8260869 0.811594203 47.884058 3.85549137 43.8260869 6.89855072 43.8260869 0.811594203"></polyline>
            <line x1="87.0434783" y1="14" x2="87.0434783" y2="14" id="Fill-7" fill="#FFFFFE"></line>
            <polyline id="Fill-8" fill="#FF9724" points="91.874083 27.5942029 82.3768116 14.2024913 91.874083 0.811594203 96.5797105 0.811594203 87.1205323 14.2024913 96.5797105 27.5942029 91.874083 27.5942029"></polyline>
            <polyline id="Fill-9" fill="#7E8083" points="77.6828754 0.811594203 73.0434783 0.811594203 81.6627325 12.9855072 84 9.69674387 77.6828754 0.811594203"></polyline>
            <polyline id="Fill-10" fill="#7E8083" points="73.0434783 27.5942029 77.6828754 27.5942029 84 18.7084362 81.6623287 15.4202898 73.0434783 27.5942029"></polyline>
        </g>
    </g>
</svg>